<svg width="212" height="80" viewBox="0 0 212 80" fill="none" xmlns="http://www.w3.org/2000/svg">
<g clip-path="url(#clip0_4047_35399)">
<path d="M0 79.9106V29.7324H50.5269L0 79.9106Z" fill="#169BD8"/>
<path d="M0 79.9106L50.5269 29.7324V79.9106H0Z" fill="#009640"/>
<path d="M80.4414 0H20.0612L0 20.0494H60.2273L80.4414 0Z" fill="#169BD8"/>
<path d="M80.3858 0.0546875V59.9557L60.2295 79.8535V20.0416L80.3858 0.0546875Z" fill="#009640"/>
<path d="M113.275 16.4731H111.336L111.036 13.9933H101.176V0.104492H103.916V11.5735H108.734V0.104492H111.477V11.5735H113.278V16.4731H113.275Z" fill="#169BD8"/>
<path d="M122.459 13.2009C122.058 13.518 121.555 13.7689 120.948 13.9536C120.342 14.1383 119.699 14.2325 119.017 14.2325C118.258 14.2325 117.599 14.1115 117.038 13.8657C116.478 13.6199 116.017 13.2697 115.659 12.815C115.3 12.3565 115.03 11.8139 114.857 11.1784C114.685 10.5441 114.595 9.8296 114.595 9.03486C114.595 7.34095 114.976 6.05204 115.736 5.1656C116.495 4.27916 117.583 3.83594 118.997 3.83594C119.45 3.83594 119.904 3.88561 120.357 3.98495C120.811 4.08429 121.217 4.27152 121.579 4.55044C121.938 4.82936 122.233 5.22036 122.458 5.73109C122.687 6.23926 122.797 6.91173 122.797 7.74596C122.797 8.18154 122.756 8.66424 122.678 9.19407H116.257C116.257 9.77611 116.319 10.2919 116.438 10.7415C116.558 11.1911 116.744 11.5719 116.997 11.884C117.25 12.1934 117.582 12.4329 117.988 12.5985C118.394 12.764 118.89 12.8468 119.48 12.8468C119.933 12.8468 120.387 12.7666 120.84 12.6074C121.294 12.4507 121.633 12.2648 121.862 12.0533L122.459 13.2009ZM119.02 5.22291C118.232 5.22291 117.604 5.42669 117.131 5.83807C116.658 6.24945 116.374 6.94994 116.283 7.94082H121.244C121.244 6.93339 121.048 6.23035 120.662 5.82661C120.272 5.42542 119.726 5.22291 119.02 5.22291Z" fill="#169BD8"/>
<path d="M131.436 9.60606H126.915V13.9899H125.315V4.06836H126.915V8.21527H131.436V4.06836H133.036V13.9899H131.436V9.60606Z" fill="#169BD8"/>
<path d="M142.499 5.46149H139.359V13.9935H137.76V5.46149H134.618V4.07324H142.499V5.46149Z" fill="#169BD8"/>
<path d="M144.075 4.07321H145.174L145.472 5.26532H145.555C145.861 4.80173 146.257 4.44893 146.746 4.20567C147.233 3.95986 147.79 3.83887 148.415 3.83887C149.748 3.83887 150.743 4.23114 151.395 5.00933C152.049 5.79006 152.376 7.06495 152.376 8.83911C152.376 9.67205 152.269 10.426 152.048 11.0909C151.828 11.7582 151.52 12.3237 151.119 12.7873C150.718 13.2509 150.237 13.6101 149.669 13.8584C149.101 14.1068 148.471 14.2367 147.781 14.2367C147.289 14.2367 146.899 14.2061 146.609 14.1463C146.322 14.0852 146.01 13.9833 145.68 13.8406V17.9659H144.08L144.075 4.07321ZM148.117 5.22329C147.439 5.22329 146.899 5.40033 146.509 5.74803C146.114 6.09827 145.841 6.63065 145.677 7.3426V12.2626C145.919 12.4473 146.189 12.5886 146.498 12.6905C146.804 12.7873 147.21 12.8396 147.72 12.8396C148.641 12.8396 149.37 12.5008 149.91 11.8156C150.449 11.1367 150.722 10.1318 150.722 8.81109C150.722 8.2698 150.674 7.7769 150.583 7.33241C150.488 6.88792 150.337 6.50965 150.132 6.20143C149.926 5.89194 149.659 5.64996 149.33 5.47802C148.999 5.30863 148.597 5.22329 148.117 5.22329Z" fill="#169BD8"/>
<path d="M105.855 24.0918L106.256 25.8965H106.375L106.695 24.0306L108.796 17.958H111.617L107.898 27.5611C107.606 28.3138 107.322 28.9685 107.05 29.5263C106.775 30.0803 106.482 30.5414 106.171 30.9056C105.859 31.2699 105.509 31.5399 105.123 31.7195C104.736 31.8991 104.282 31.9869 103.762 31.9869C103.323 31.9869 102.964 31.9564 102.694 31.8965C102.419 31.8354 102.124 31.7093 101.804 31.5106L102.502 29.3085C102.73 29.427 102.936 29.5021 103.122 29.5263C103.308 29.5543 103.509 29.5671 103.723 29.5671C104.352 29.5671 104.789 29.0793 105.045 28.0986L99.8047 17.9606H103.026L105.855 24.0918Z" fill="#169BD8"/>
<path d="M118.895 23.3167H114.476V31.8487H112.874V21.9297H120.497V31.8487H118.895V23.3167Z" fill="#169BD8"/>
<path d="M123.577 21.9277H124.676L124.974 23.1198H125.055C125.36 22.6562 125.756 22.3034 126.246 22.0602C126.733 21.8144 127.289 21.6934 127.915 21.6934C129.247 21.6934 130.243 22.0856 130.894 22.8638C131.548 23.6445 131.876 24.9194 131.876 26.6936C131.876 27.5265 131.768 28.2805 131.547 28.9454C131.327 29.6127 131.019 30.1782 130.618 30.6418C130.217 31.1054 129.737 31.4646 129.169 31.7129C128.601 31.9638 127.97 32.0912 127.28 32.0912C126.788 32.0912 126.399 32.0606 126.108 32.0008C125.822 31.9396 125.51 31.8378 125.179 31.6951V35.8229H123.58V21.9277H123.577ZM127.614 23.0791C126.936 23.0791 126.396 23.2561 126.005 23.6038C125.611 23.954 125.337 24.4864 125.174 25.1984V30.1184C125.416 30.303 125.686 30.4444 125.995 30.5463C126.301 30.6431 126.707 30.6953 127.217 30.6953C128.138 30.6953 128.867 30.3565 129.406 29.6713C129.946 28.9925 130.218 27.9876 130.218 26.6669C130.218 26.1256 130.171 25.6327 130.08 25.1882C129.985 24.7437 129.834 24.3654 129.629 24.0572C129.423 23.7477 129.156 23.5057 128.827 23.3338C128.502 23.1644 128.098 23.0791 127.614 23.0791Z" fill="#169BD8"/>
<path d="M134.237 22.663C134.743 22.3599 135.333 22.1357 136.009 21.9893C136.682 21.8454 137.386 21.7715 138.12 21.7715C138.812 21.7715 139.368 21.8657 139.789 22.0504C140.209 22.2351 140.529 22.4783 140.748 22.7738C140.968 23.0693 141.116 23.4004 141.188 23.7558C141.262 24.1111 141.296 24.4703 141.296 24.8269C141.296 25.6216 141.276 26.3947 141.234 27.15C141.192 27.9052 141.172 28.6185 141.172 29.2935C141.172 29.7813 141.192 30.2449 141.234 30.6843C141.275 31.1224 141.346 31.5262 141.454 31.8955H140.274L139.854 30.5047H139.756C139.637 30.6894 139.487 30.8715 139.306 31.0511C139.124 31.2307 138.907 31.3873 138.654 31.5262C138.401 31.6637 138.109 31.7822 137.775 31.8739C137.441 31.9681 137.064 32.0114 136.634 32.0114C136.205 32.0114 135.811 31.9452 135.443 31.8127C135.076 31.6803 134.762 31.493 134.491 31.2472C134.224 31.0014 134.016 30.7098 133.859 30.3646C133.706 30.022 133.628 29.631 133.628 29.1942C133.628 28.6121 133.747 28.1269 133.986 27.7371C134.228 27.3487 134.562 27.0366 134.996 26.8048C135.431 26.573 135.951 26.4075 136.557 26.3107C137.164 26.2139 137.834 26.1617 138.565 26.1617C138.752 26.1617 138.936 26.1617 139.117 26.1617C139.298 26.1617 139.478 26.1757 139.668 26.2024C139.709 25.805 139.73 25.4497 139.73 25.1313C139.73 24.4053 139.582 23.8946 139.29 23.603C138.998 23.3138 138.461 23.1674 137.691 23.1674C137.462 23.1674 137.22 23.1839 136.962 23.2196C136.7 23.2553 136.437 23.3024 136.16 23.3635C135.885 23.4246 135.626 23.4985 135.379 23.5902C135.131 23.6781 134.914 23.7774 134.728 23.8857L134.237 22.663ZM137.078 30.6181C137.45 30.6181 137.784 30.5684 138.08 30.4691C138.371 30.3723 138.625 30.2423 138.839 30.0908C139.054 29.9392 139.228 29.7711 139.367 29.5864C139.506 29.4018 139.613 29.2222 139.676 29.0515V27.4009C139.489 27.3869 139.298 27.3792 139.105 27.3703C138.91 27.3652 138.721 27.3589 138.535 27.3589C138.12 27.3589 137.716 27.3843 137.324 27.4302C136.93 27.4773 136.584 27.5626 136.286 27.69C135.988 27.8135 135.747 27.9855 135.565 28.2058C135.384 28.4262 135.296 28.6974 135.296 29.0311C135.296 29.4947 135.463 29.8755 135.794 30.1736C136.132 30.4691 136.557 30.6181 137.078 30.6181Z" fill="#169BD8"/>
<path d="M144.314 21.948C144.782 21.9199 145.271 21.8868 145.783 21.8512C146.294 21.8104 146.934 21.79 147.694 21.79C149.017 21.79 149.962 21.9913 150.535 22.3976C151.108 22.8 151.395 23.4126 151.395 24.2328C151.395 24.6964 151.259 25.1486 150.984 25.5931C150.709 26.0376 150.26 26.3623 149.635 26.575V26.6553C150.422 26.8017 150.976 27.0717 151.296 27.4691C151.616 27.8665 151.774 28.3938 151.774 29.0586C151.774 30.0902 151.401 30.8378 150.652 31.2989C149.907 31.7625 148.785 31.9918 147.291 31.9918C146.732 31.9918 146.212 31.9752 145.73 31.9421C145.252 31.909 144.775 31.8708 144.312 31.8351V21.948H144.314ZM147.876 26.114C148.117 26.114 148.348 26.0732 148.573 25.9955C148.802 25.9153 149.005 25.8083 149.185 25.6695C149.366 25.5319 149.51 25.3689 149.624 25.1842C149.739 24.9996 149.794 24.8009 149.794 24.5882C149.794 24.0609 149.636 23.6941 149.316 23.4878C148.996 23.284 148.437 23.1821 147.635 23.1821C147.208 23.1821 146.871 23.191 146.625 23.2012C146.378 23.2152 146.144 23.2292 145.916 23.242V26.1204H147.874V26.114H147.876ZM145.916 30.5182C146.169 30.5462 146.42 30.5653 146.668 30.5793C146.916 30.5933 147.205 30.5984 147.536 30.5984C148.429 30.5984 149.095 30.4749 149.525 30.2201C149.96 29.9692 150.177 29.5413 150.177 28.9312C150.177 28.4562 149.993 28.0703 149.626 27.7697C149.258 27.4742 148.608 27.3227 147.675 27.3227H145.914V30.5182H145.916Z" fill="#169BD8"/>
<path d="M159.676 23.3197H156.775C156.734 23.8737 156.694 24.4736 156.656 25.1129C156.617 25.7523 156.558 26.3955 156.474 27.0387C156.394 27.6818 156.288 28.2944 156.155 28.8841C156.021 29.4751 155.851 29.9909 155.646 30.443C155.44 30.8926 155.185 31.2543 154.886 31.5243C154.588 31.7969 154.23 31.9332 153.819 31.9332C153.566 31.9332 153.346 31.9192 153.16 31.8924C152.973 31.8644 152.806 31.8186 152.661 31.7549L152.903 30.4252C153.061 30.4774 153.237 30.5055 153.423 30.5055C153.69 30.5055 153.929 30.3946 154.144 30.1692C154.358 29.9425 154.545 29.5158 154.703 28.8892C154.861 28.2601 154.994 27.3914 155.104 26.2821C155.209 25.1702 155.285 23.7247 155.323 21.9365H161.282V31.8568H159.683V23.3197H159.676Z" fill="#169BD8"/>
<path d="M171.658 31.0534C171.257 31.3706 170.754 31.6215 170.147 31.8061C169.541 31.9908 168.899 32.0851 168.216 32.0851C167.457 32.0851 166.798 31.9641 166.238 31.7182C165.679 31.4724 165.216 31.1222 164.858 30.6675C164.499 30.209 164.23 29.6664 164.056 29.0309C163.884 28.3966 163.794 27.6821 163.794 26.8874C163.794 25.1935 164.176 23.9046 164.935 23.0181C165.694 22.133 166.782 21.6885 168.196 21.6885C168.649 21.6885 169.103 21.7381 169.556 21.8375C170.01 21.9368 170.416 22.1241 170.778 22.403C171.137 22.6819 171.432 23.0729 171.657 23.5836C171.886 24.0918 171.996 24.7643 171.996 25.5985C171.996 26.0341 171.955 26.5168 171.877 27.0466H165.457C165.457 27.6286 165.518 28.1445 165.638 28.5941C165.757 29.0436 165.943 29.4245 166.197 29.7365C166.45 30.046 166.781 30.2854 167.187 30.451C167.593 30.6166 168.089 30.6994 168.679 30.6994C169.132 30.6994 169.586 30.6191 170.039 30.4599C170.493 30.3033 170.832 30.1173 171.061 29.9059L171.658 31.0534ZM168.219 23.0793C167.431 23.0793 166.803 23.2831 166.33 23.6944C165.857 24.1058 165.573 24.8063 165.482 25.7972H170.443C170.443 24.7897 170.248 24.0867 169.861 23.683C169.472 23.2831 168.926 23.0793 168.219 23.0793Z" fill="#169BD8"/>
<path d="M180.638 27.4648H176.121V31.8487H174.519V21.9297H176.121V26.0741H180.638V21.9297H182.242V31.8487H180.638V27.4648Z" fill="#169BD8"/>
<path d="M191.558 25.9773L191.62 24.7495H191.558L190.74 26.0193L186.242 31.8487H185.32V21.9297H186.921V27.9781L186.862 29.1473H186.94L187.722 27.9195L192.224 21.9297H193.163V31.8487H191.561V25.9773H191.558Z" fill="#169BD8"/>
<path d="M201.22 27.7421L199.678 27.9815L197.038 31.8508H195.097L197.498 28.4566L198.3 27.723C197.607 27.6185 197.017 27.3396 196.528 26.89C196.041 26.4404 195.799 25.8329 195.799 25.0662C195.799 24.4702 195.902 23.962 196.108 23.5379C196.313 23.1125 196.611 22.7622 196.998 22.4871C197.385 22.2082 197.844 22.0095 198.378 21.8796C198.91 21.7561 199.51 21.6924 200.178 21.6924C200.67 21.6924 201.133 21.7255 201.558 21.7892C201.986 21.8554 202.403 21.9267 202.818 22.007V31.8495H201.219V27.7434H201.22V27.7421ZM201.22 23.278C201.048 23.2118 200.853 23.1621 200.638 23.129C200.424 23.0959 200.237 23.0794 200.079 23.0794C199.227 23.0794 198.577 23.2309 198.129 23.5379C197.68 23.841 197.461 24.3237 197.461 24.986C197.461 25.582 197.697 26.0405 198.17 26.3653C198.643 26.6875 199.266 26.8506 200.039 26.8506C200.054 26.8506 200.073 26.8506 200.101 26.8506C200.129 26.8506 200.182 26.8506 200.259 26.8506C200.337 26.8506 200.451 26.848 200.598 26.8391C200.743 26.834 200.952 26.8225 201.219 26.8085V23.278H201.22Z" fill="#169BD8"/>
<path d="M101.176 35.9569C101.735 35.8525 102.353 35.7697 103.026 35.7086C103.699 35.6475 104.37 35.6182 105.034 35.6182C105.727 35.6182 106.426 35.6768 107.123 35.7863C107.821 35.8971 108.453 36.1225 109.015 36.46C109.576 36.7963 110.032 37.2688 110.386 37.8674C110.739 38.466 110.914 39.2556 110.914 40.2185C110.914 41.0909 110.761 41.8271 110.452 42.4282C110.147 43.0294 109.741 43.5235 109.231 43.9069C108.724 44.2903 108.149 44.5666 107.5 44.7398C106.851 44.9105 106.184 44.9997 105.492 44.9997C105.425 44.9997 105.32 44.9997 105.172 44.9997C105.024 44.9997 104.874 44.9971 104.711 44.9882C104.553 44.9831 104.393 44.9716 104.24 44.9576C104.087 44.9436 103.976 44.9296 103.911 44.9169V49.6993H101.171V35.9569H101.176ZM105.258 37.9578C104.991 37.9578 104.738 37.9693 104.499 37.9884C104.257 38.0075 104.064 38.0329 103.917 38.0597V42.5632C103.969 42.5772 104.05 42.5912 104.158 42.604C104.263 42.618 104.378 42.6294 104.497 42.6345C104.617 42.6435 104.734 42.646 104.848 42.646C104.96 42.646 105.046 42.646 105.099 42.646C105.457 42.646 105.813 42.6129 106.166 42.5467C106.52 42.4804 106.834 42.3594 107.118 42.1799C107.4 42.0003 107.622 41.7519 107.786 41.4348C107.953 41.1177 108.037 40.7012 108.037 40.1854C108.037 39.7472 107.956 39.3881 107.795 39.1041C107.637 38.82 107.425 38.5933 107.163 38.4201C106.901 38.2495 106.607 38.131 106.273 38.0648C105.941 37.9935 105.602 37.9578 105.258 37.9578Z" fill="#169BD8"/>
<path d="M120.258 48.9118C119.857 49.2289 119.353 49.4799 118.747 49.6645C118.141 49.8492 117.498 49.9434 116.816 49.9434C116.057 49.9434 115.397 49.8225 114.837 49.5766C114.278 49.3308 113.816 48.9806 113.457 48.5259C113.099 48.0674 112.829 47.5248 112.656 46.8893C112.483 46.255 112.394 45.5405 112.394 44.7458C112.394 43.0519 112.775 41.763 113.534 40.8765C114.294 39.9914 115.382 39.5469 116.795 39.5469C117.249 39.5469 117.702 39.5965 118.156 39.6959C118.61 39.7952 119.016 39.9825 119.378 40.2614C119.736 40.5403 120.032 40.9313 120.257 41.442C120.485 41.9502 120.596 42.6227 120.596 43.4569C120.596 43.895 120.555 44.3752 120.476 44.905H114.056C114.056 45.487 114.118 46.0029 114.237 46.4525C114.357 46.902 114.543 47.2829 114.796 47.5949C115.049 47.9044 115.381 48.1438 115.787 48.3094C116.193 48.475 116.689 48.5577 117.278 48.5577C117.732 48.5577 118.186 48.4775 118.639 48.3183C119.093 48.1617 119.432 47.9757 119.661 47.7643L120.258 48.9118ZM116.816 40.9351C116.028 40.9351 115.4 41.1389 114.927 41.5503C114.454 41.9617 114.17 42.6622 114.079 43.653H119.04C119.04 42.6456 118.845 41.9426 118.458 41.5388C118.071 41.1364 117.523 40.9351 116.816 40.9351Z" fill="#169BD8"/>
<path d="M129.937 49.0513C129.536 49.3404 129.063 49.562 128.519 49.7136C127.97 49.8652 127.397 49.9429 126.799 49.9429C126.026 49.9429 125.372 49.8219 124.838 49.576C124.303 49.3302 123.866 48.98 123.527 48.5253C123.188 48.0668 122.94 47.5179 122.787 46.8785C122.634 46.2353 122.556 45.5259 122.556 44.7452C122.556 43.0653 122.928 41.7789 123.677 40.8874C124.423 39.9959 125.497 39.5488 126.898 39.5488C127.538 39.5488 128.083 39.5985 128.529 39.6978C128.977 39.7972 129.377 39.9411 129.739 40.1258L129.278 41.4949C128.972 41.3243 128.629 41.1893 128.256 41.0861C127.884 40.9867 127.483 40.9371 127.055 40.9371C125.16 40.9371 124.214 42.2069 124.214 44.7478C124.214 45.2496 124.264 45.7297 124.365 46.1857C124.465 46.6442 124.632 47.0441 124.863 47.3969C125.097 47.7471 125.403 48.0286 125.784 48.2413C126.166 48.454 126.632 48.5584 127.193 48.5584C127.671 48.5584 128.102 48.4846 128.484 48.3406C128.865 48.1942 129.174 48.0311 129.413 47.8465L129.937 49.0513Z" fill="#169BD8"/>
<path d="M138.155 41.175H133.737V49.7044H132.138V39.7842H139.757V49.7044H138.155V41.175Z" fill="#169BD8"/>
<path d="M145.787 46.2169L146.348 48.121H146.448L146.89 46.1953L148.838 39.7852H150.438L147.478 48.698C147.249 49.3462 147.027 49.9729 146.809 50.5829C146.59 51.193 146.344 51.733 146.081 52.2081C145.814 52.6831 145.513 53.0639 145.183 53.3505C144.849 53.632 144.462 53.7784 144.023 53.7784C143.545 53.7784 143.149 53.7122 142.843 53.5797L143.125 52.2106C143.297 52.2768 143.464 52.3074 143.623 52.3074C143.996 52.3074 144.354 52.1113 144.702 51.7228C145.048 51.3305 145.337 50.6632 145.562 49.7079L141.539 39.7877H143.378L145.787 46.2169Z" fill="#169BD8"/>
<path d="M153.077 41.5502C153.517 40.9159 154.004 40.4689 154.538 40.2116C155.07 39.9518 155.74 39.8257 156.539 39.8257C157.763 39.8257 158.709 40.2231 159.368 41.0178C160.027 41.8126 160.359 42.983 160.359 44.5279C160.359 46.3135 159.974 47.6623 159.207 48.5729C158.439 49.4861 157.371 49.9446 155.997 49.9446C154.531 49.9446 153.432 49.4428 152.697 48.4354C151.962 47.428 151.599 45.8499 151.599 43.6924C151.599 42.5551 151.656 41.582 151.768 40.7758C151.88 39.9671 152.05 39.2882 152.267 38.7342C152.486 38.1802 152.754 37.7357 153.068 37.4046C153.381 37.076 153.733 36.811 154.128 36.6213C154.52 36.4315 154.952 36.2952 155.42 36.2124C155.887 36.1322 156.388 36.0685 156.919 36.0138C157.612 35.9475 158.154 35.8737 158.549 35.7845C158.941 35.6966 159.259 35.5412 159.502 35.3184L159.683 36.7448C159.549 36.8633 159.401 36.9626 159.243 37.0403C159.085 37.1205 158.89 37.1868 158.661 37.239C158.433 37.2937 158.167 37.3383 157.849 37.3765C157.537 37.4173 157.173 37.4504 156.758 37.4759C156.185 37.5166 155.682 37.5829 155.248 37.686C154.813 37.7854 154.441 37.9751 154.126 38.263C153.814 38.547 153.567 38.9495 153.386 39.4742C153.205 39.9951 153.083 40.688 153.016 41.5489L153.077 41.5502ZM153.259 44.7648C153.259 45.2666 153.311 45.7493 153.417 46.2129C153.522 46.6765 153.686 47.0815 153.906 47.4331C154.126 47.7846 154.41 48.0597 154.754 48.2584C155.098 48.457 155.508 48.5538 155.976 48.5538C156.897 48.5538 157.578 48.2278 158.027 47.5719C158.475 46.9147 158.695 45.9493 158.695 44.6629C158.695 44.1611 158.647 43.6975 158.556 43.2721C158.461 42.8467 158.314 42.4799 158.114 42.1717C157.914 41.8622 157.66 41.6228 157.355 41.4572C157.049 41.2916 156.681 41.2089 156.256 41.2089C155.218 41.1949 154.456 41.4954 153.974 42.1106C153.498 42.7308 153.259 43.6147 153.259 44.7648Z" fill="#169BD8"/>
<path d="M168.261 41.1722H165.36C165.319 41.7262 165.279 42.3261 165.241 42.9655C165.199 43.6087 165.143 44.248 165.059 44.8912C164.978 45.5344 164.873 46.147 164.74 46.7367C164.606 47.3276 164.436 47.8435 164.231 48.2956C164.025 48.7452 163.769 49.1069 163.471 49.3769C163.173 49.6495 162.815 49.7857 162.404 49.7857C162.151 49.7857 161.931 49.7717 161.745 49.745C161.558 49.717 161.391 49.6711 161.246 49.6074L161.488 48.2778C161.646 48.33 161.822 48.358 162.008 48.358C162.275 48.358 162.514 48.2472 162.729 48.0218C162.943 47.7951 163.13 47.3684 163.288 46.7418C163.446 46.1126 163.579 45.244 163.689 44.1347C163.794 43.0228 163.87 41.5772 163.908 39.7891H169.867V49.7093H168.268V41.1748H168.261V41.1722Z" fill="#169BD8"/>
<path d="M179.179 43.8331L179.236 42.6053H179.179L178.358 43.8739L173.855 49.7071H172.936V39.7881H174.535V45.8391L174.476 47.0057H174.554L175.336 45.7779L179.838 39.7881H180.778V49.7071H179.179V43.8331Z" fill="#169BD8"/>
<path d="M186.381 45.243H185.461V49.7071H183.858V39.7881H185.461V44.2712L186.32 43.9923L189.519 39.7881H191.26L188.159 43.7771L187.321 44.4317L188.359 45.2265L191.701 49.7096H189.72L186.381 45.243Z" fill="#169BD8"/>
<path d="M192.863 44.7462C192.863 43.0663 193.238 41.7799 193.993 40.8884C194.747 39.9968 195.829 39.5498 197.245 39.5498C197.99 39.5498 198.641 39.6708 199.195 39.9166C199.749 40.1624 200.205 40.5127 200.566 40.9673C200.924 41.4258 201.194 41.9748 201.368 42.6141C201.54 43.2573 201.63 43.9667 201.63 44.7474C201.63 46.4274 201.254 47.7137 200.5 48.6052C199.746 49.4968 198.664 49.9438 197.248 49.9438C196.503 49.9438 195.849 49.8228 195.298 49.577C194.744 49.3312 194.288 48.981 193.927 48.5263C193.569 48.0678 193.299 47.5188 193.125 46.8795C192.947 46.2363 192.863 45.5269 192.863 44.7462ZM194.521 44.7462C194.521 45.248 194.571 45.7307 194.671 46.1943C194.771 46.6579 194.929 47.0603 195.139 47.4055C195.353 47.7481 195.631 48.0296 195.979 48.2384C196.323 48.4511 196.747 48.5556 197.239 48.5556C199.051 48.5696 199.961 47.2998 199.961 44.7449C199.961 44.2291 199.911 43.7375 199.81 43.2764C199.71 42.8128 199.552 42.4104 199.34 42.0652C199.126 41.7226 198.848 41.4475 198.5 41.2399C198.155 41.0336 197.731 40.9342 197.239 40.9342C195.428 40.9215 194.521 42.1938 194.521 44.7462Z" fill="#169BD8"/>
<path d="M210.378 43.8327L210.439 42.6049H210.378L209.557 43.8747L205.056 49.7079H204.135V39.7877H205.734V45.8386L205.673 47.0091H205.754L206.535 45.7813L211.036 39.7902H211.976V49.7104H210.376V43.8327H210.378ZM206.438 35.7783C206.572 36.3884 206.8 36.81 207.128 37.0481C207.453 37.2876 207.833 37.4035 208.258 37.4035C208.683 37.4035 209.065 37.2799 209.399 37.0252C209.73 36.7743 209.958 36.3655 210.077 35.7974L211.278 36.1757C211.159 36.9424 210.813 37.5334 210.247 37.9422C209.679 38.3536 209.003 38.5574 208.215 38.5574C207.857 38.5574 207.497 38.5102 207.148 38.4198C206.794 38.3256 206.48 38.188 206.196 38.0033C205.914 37.8187 205.675 37.5779 205.475 37.2888C205.274 36.9997 205.141 36.6546 205.074 36.2572L206.438 35.7783Z" fill="#169BD8"/>
<path d="M42.9927 47.1907C42.9619 47.2263 42.9285 47.2595 42.9092 47.2875C42.8976 47.3066 42.8899 47.3231 42.8899 47.3448L42.8925 47.3639L42.8951 47.3728L42.8925 47.3817C42.7948 47.8428 42.5533 48.3 42.5392 48.7305V48.7585L42.5173 48.7725L42.5122 48.7751C42.507 48.8693 42.4788 48.9712 42.4428 49.0756C42.4017 49.189 42.3477 49.296 42.2976 49.3851L42.295 49.3928L42.2899 49.3979C42.2064 49.4666 42.1563 49.5214 42.092 49.5774C42.0304 49.6297 41.961 49.6768 41.8505 49.7214L41.8454 49.7265C41.8454 49.729 41.8428 49.7354 41.8428 49.7519C41.8428 49.7608 41.8428 49.7736 41.8428 49.785C41.8428 49.7991 41.8428 49.8182 41.8376 49.8373C41.8351 49.8513 41.8261 49.8653 41.8158 49.878C41.7747 50.0958 41.7104 50.3824 41.5344 50.5709C41.5344 50.5734 41.537 50.576 41.537 50.576L41.5511 50.5874C41.5704 50.5963 41.6089 50.5989 41.6539 50.5989C41.6783 50.5989 41.7066 50.5989 41.7374 50.5989C41.7785 50.5989 41.8261 50.5989 41.8685 50.6065C41.9096 50.6154 41.9571 50.632 41.9905 50.6677L42.0098 50.6868L42.0072 50.711C42.0047 50.725 41.9931 50.8383 41.9738 50.9619C41.9546 51.0892 41.9289 51.2319 41.8993 51.3172C41.8916 51.3452 41.88 51.3669 41.8659 51.3834C41.8633 51.3885 41.8582 51.3949 41.8518 51.3974C41.7516 51.5847 41.713 51.6929 41.7156 51.7477C41.7156 51.7783 41.7207 51.7859 41.7374 51.8063C41.7516 51.8203 41.7824 51.8394 41.8261 51.8585C41.9122 51.8967 42.0381 51.9464 42.1743 52.0597L42.1794 52.0648L42.182 52.0699C42.2269 52.1438 42.2706 52.2215 42.3105 52.2966L42.3554 52.3845V52.3934V52.4214C42.3554 52.5119 42.3105 52.587 42.2604 52.6532C42.2102 52.7195 42.155 52.7768 42.1126 52.8239L42.1049 52.8354L42.0933 52.8405C42.0406 52.8621 42.015 52.885 41.9982 52.9143C41.979 52.9449 41.9738 52.9806 41.9738 53.0277C41.9738 53.1321 42.015 53.2735 42.015 53.3996C42.015 53.4403 42.0098 53.4875 41.9931 53.5269L41.9854 53.5486L41.9636 53.5575C41.9302 53.5715 41.8916 53.5792 41.8492 53.5792C41.7182 53.5792 41.5704 53.5155 41.4149 53.4416C41.2595 53.3677 41.1002 53.276 40.9614 53.2187C40.8663 53.1805 40.7802 53.1551 40.7198 53.1551C40.6749 53.1551 40.6415 53.1665 40.6171 53.1882C40.5554 53.2518 40.4166 53.3677 40.2804 53.4225C40.2355 53.4442 40.1918 53.4556 40.1468 53.4556C40.1391 53.4556 40.1275 53.4556 40.1186 53.4531L40.0941 53.4505L40.0826 53.4289C40.0607 53.3932 40.0684 53.3601 40.0633 53.3346C40.0633 53.3232 40.0607 53.313 40.0607 53.3041C40.0325 53.299 40.0106 53.2901 39.9914 53.2786C39.9631 53.2671 39.9387 53.2569 39.9245 53.2569L39.9104 53.262C39.7742 53.541 39.6959 53.7995 39.6098 54.109C39.5571 54.2771 39.4877 54.514 39.3952 54.7382C39.304 54.9585 39.1922 55.1686 39.0393 55.2845C39.0393 55.2845 39.0367 55.2845 39.0367 55.2871C38.9841 55.3317 38.9224 55.3444 38.8697 55.3444C38.8029 55.3444 38.7387 55.3304 38.686 55.3329C38.6359 55.3329 38.6076 55.3419 38.5781 55.3686L38.5729 55.3737L38.4342 55.4476L38.4059 55.4285C38.3648 55.4004 38.3108 55.3673 38.2581 55.3431C38.2055 55.3189 38.1528 55.3011 38.1052 55.3011C38.0641 55.3011 38.0307 55.3126 37.9973 55.3508C37.9729 55.389 37.9665 55.4285 37.9639 55.4781C37.9639 55.5775 38.0025 55.6959 38.005 55.8207C38.005 55.8921 37.9858 55.9723 37.9331 56.0385C37.8663 56.2041 37.838 56.3251 37.838 56.4741C37.838 56.5238 37.8406 56.576 37.8457 56.6346C37.8791 56.6843 37.8958 56.7365 37.8907 56.7887C37.8907 56.888 37.8496 56.9848 37.8072 57.0702C37.7686 57.1555 37.7352 57.2357 37.7352 57.2803C37.7352 57.3045 37.7403 57.3134 37.7571 57.33L37.802 57.3656L37.7635 57.4039L37.7609 57.4089C37.7583 57.414 37.7558 57.423 37.7558 57.4331C37.7532 57.4548 37.7506 57.4828 37.7506 57.5108C37.7506 57.5414 37.7532 57.5745 37.7596 57.6013C37.766 57.628 37.7712 57.6509 37.7789 57.656L37.7815 57.6611L37.784 57.67C37.8123 57.7668 37.8226 57.8636 37.8226 57.9592C37.8226 58.0547 37.811 58.1553 37.7943 58.2546L37.7917 58.2686L37.7802 58.2801C37.7442 58.3158 37.689 58.3489 37.6299 58.3871C37.572 58.4227 37.5104 58.461 37.4718 58.4941C37.4436 58.5157 37.4269 58.5348 37.4269 58.5437L37.4243 58.5514L37.2907 58.6838V58.8774L37.4076 58.9653C37.477 58.9628 37.5528 58.9411 37.6324 58.9411C37.6851 58.9411 37.7378 58.9488 37.7943 58.9819L37.8226 58.9959L37.82 59.0264C37.8174 59.0685 37.8174 59.1118 37.8174 59.1564C37.8174 59.3576 37.8419 59.5983 37.8419 59.8301C37.8419 60.0759 37.8136 60.3153 37.689 60.5166C37.6915 60.7064 37.7249 60.8197 37.7609 61.0209C37.8226 61.1394 37.8444 61.2413 37.8444 61.3355C37.8444 61.4298 37.8226 61.5151 37.8033 61.5953C37.784 61.673 37.7673 61.752 37.7648 61.8462C37.82 61.9532 37.8316 62.0921 37.8316 62.2105C37.8393 62.213 37.8534 62.2194 37.865 62.2245C37.8675 62.2245 37.8675 62.2271 37.8701 62.2271H37.8727C37.8842 62.1366 37.8945 62.078 37.9087 62.0398C37.9138 62.0258 37.9202 62.0118 37.9395 61.9991C37.9472 61.994 37.9639 61.9851 37.978 61.9851C38.0025 61.9851 38.0166 61.9965 38.0282 62.0067C38.0397 62.0182 38.0474 62.0258 38.0526 62.0373C38.0641 62.0589 38.077 62.0819 38.0885 62.115C38.1129 62.1723 38.1412 62.2449 38.1721 62.3251L38.4252 62.4881L38.4367 62.734L38.5678 63.1059V63.1148C38.5678 63.2001 38.5485 63.2994 38.5318 63.3962C38.51 63.493 38.4907 63.5924 38.4791 63.6752L38.4766 63.6892L38.4688 63.7006C38.4611 63.7096 38.438 63.7388 38.411 63.772C38.384 63.8051 38.3494 63.8458 38.3198 63.8789C38.298 63.9006 38.2813 63.9197 38.2581 63.9337C38.2466 63.9426 38.2299 63.9477 38.2055 63.9528H38.2003H38.1977C38.1309 63.9414 38.0898 63.9006 38.0526 63.8649C38.0217 63.8293 37.9973 63.7962 37.9742 63.7796C37.9601 63.7681 37.9434 63.7656 37.9189 63.7605C37.9112 63.7605 37.8971 63.7605 37.883 63.763H37.8778H37.8727C37.8084 63.763 37.7815 63.7822 37.7583 63.8127C37.7365 63.8407 37.7249 63.8866 37.7249 63.9426C37.7249 64.0038 37.7365 64.07 37.7558 64.1248L37.7583 64.1337V64.1413C37.7583 64.2878 37.7275 64.3757 37.6864 64.4508C37.6453 64.5221 37.5913 64.5782 37.5412 64.6737L37.5296 64.6992L37.5014 64.7017C37.4898 64.7043 37.477 64.7106 37.4654 64.7259C37.4538 64.7399 37.4371 64.7616 37.4294 64.7921C37.4076 64.8507 37.3934 64.922 37.3845 64.9857C37.3793 65.0188 37.3729 65.0469 37.3652 65.0736C37.3703 65.0953 37.3742 65.1118 37.3742 65.1309C37.3742 65.1806 37.3549 65.2163 37.3433 65.2443C37.3318 65.2723 37.3215 65.2939 37.3215 65.313C37.3215 65.3321 37.3266 65.3576 37.3523 65.3984L37.3575 65.4073V65.4188C37.3716 65.5894 37.3767 65.769 37.4243 65.9155L37.4269 65.9206V65.9257C37.4487 66.132 37.4937 66.3612 37.4937 66.593C37.4937 66.7255 37.4795 66.863 37.432 66.993L37.4269 67.0044L37.4153 67.0133C37.3202 67.0961 37.2624 67.1904 37.2624 67.2973C37.2624 67.3394 37.2701 67.3878 37.2907 67.4349C37.2958 67.454 37.3048 67.4629 37.3189 67.4706C37.3305 67.4795 37.3523 67.4846 37.3767 67.4922C37.4269 67.5011 37.4937 67.5011 37.5579 67.5139C37.599 67.5215 37.6466 67.5355 37.6825 67.5686L37.6877 67.5737L37.6902 67.5788C37.7236 67.6361 37.7686 67.7087 37.8072 67.789C37.8457 67.8667 37.8765 67.9545 37.8765 68.0424C37.8765 68.1061 37.8573 68.1723 37.8123 68.2296L37.7982 68.2487L37.7763 68.2513C37.6851 68.2564 37.6286 68.2768 37.6042 68.2895C37.5759 68.3086 37.5708 68.3201 37.563 68.3468C37.5489 68.3965 37.5553 68.4958 37.4988 68.6066L37.5515 68.6894C37.5797 68.7034 37.6016 68.7225 37.6183 68.7416C37.6401 68.7633 37.6517 68.7862 37.6594 68.8104C37.6787 68.8601 37.6787 68.8983 37.698 68.948L37.7005 68.9531V68.9581C37.7147 69.0651 37.7198 69.1288 37.7288 69.1543L37.7365 69.1683C37.7391 69.1708 37.7481 69.1772 37.7673 69.1874C37.7917 69.1963 37.8316 69.2065 37.892 69.2205L37.9305 69.2294V69.2715C37.9305 69.3428 37.9164 69.4651 37.9164 69.5835C37.9164 69.6497 37.9215 69.716 37.9356 69.7682C37.9472 69.8229 37.969 69.8586 37.9935 69.8815C38.0076 69.893 38.0294 69.9032 38.0603 69.9032H38.068L38.0757 69.9057C38.1309 69.9248 38.1836 69.9312 38.2401 69.9312C38.3018 69.9312 38.3622 69.9223 38.4213 69.9172L38.4406 69.9146L38.4547 69.9236C38.483 69.9427 38.4997 69.9656 38.5125 69.9923C38.5202 70.0203 38.5241 70.0445 38.5241 70.0662C38.5241 70.107 38.5164 70.1515 38.5189 70.1821C38.5189 70.1961 38.5215 70.2127 38.5241 70.2203L38.5357 70.2509L38.2825 70.4967L38.2684 70.6954L38.2568 70.7068C38.1592 70.8062 38.0371 70.8304 37.9202 70.8278C37.8123 70.8278 37.6979 70.8087 37.5952 70.8087C37.5643 70.8087 37.5335 70.8113 37.5039 70.8138L37.4705 70.8189L37.3086 70.5374C37.2778 70.526 37.2508 70.5158 37.2341 70.5158C37.2123 70.5158 37.1956 70.5209 37.1789 70.5298C37.1647 70.5387 37.1455 70.5578 37.1288 70.582C37.0979 70.6266 37.0735 70.6979 37.0568 70.7718C37.0234 70.9233 37.0183 71.0978 37.0067 71.1832L37.0041 71.2023L36.9926 71.2137C36.8847 71.3207 36.8089 71.4595 36.7176 71.5971L36.7151 71.5996L36.7125 71.6022C36.6932 71.6213 36.6791 71.6353 36.6675 71.6519C36.6598 71.6633 36.6534 71.6735 36.6534 71.6773C36.6585 71.6799 36.6752 71.6888 36.6984 71.6964L36.7176 71.7015L36.7292 71.7155C36.7703 71.7792 36.8076 71.8531 36.8487 71.9257C36.8847 71.9919 36.9206 72.0531 36.9566 72.0887C37.0234 72.1104 37.0902 72.1435 37.1455 72.188C37.2033 72.2377 37.2483 72.304 37.274 72.3867L37.2765 72.3918V72.3969C37.2791 72.4542 37.2817 72.4988 37.2817 72.5408C37.2817 72.5791 37.2791 72.6147 37.2701 72.6453C37.2624 72.6758 37.2418 72.7064 37.22 72.7281C37.1789 72.7688 37.1249 72.7968 37.0478 72.8414L37.0286 73.305C37.0928 73.412 37.1121 73.5279 37.1121 73.6336C37.1121 73.7712 37.0838 73.9036 37.0838 74.0119C37.0838 74.0807 37.0915 74.1392 37.1223 74.194L37.1339 74.2182L37.1223 74.2437C37.0979 74.2934 37.0774 74.3265 37.0645 74.3481C37.053 74.3761 37.0504 74.3889 37.0504 74.4118C37.0504 74.4334 37.0555 74.4564 37.0697 74.4997L37.0748 74.5137L37.0722 74.5277C37.0607 74.5723 37.0388 74.6105 37.0106 74.641C36.9823 74.6716 36.9489 74.6907 36.9155 74.7073C36.8487 74.7404 36.7767 74.7595 36.7202 74.7812C36.6842 74.8003 36.656 74.8168 36.6367 74.8423L36.4838 75.0855L35.93 75.1849C35.8851 75.2537 35.844 75.3084 35.8016 75.3479C35.7566 75.3887 35.7039 75.4192 35.6461 75.4192C35.5908 75.4192 35.5407 75.3912 35.4932 75.3505C35.4521 75.3122 35.4071 75.2537 35.3621 75.1849L35.2427 75.097C35.2401 75.1021 35.2375 75.1085 35.2375 75.1187C35.2324 75.1467 35.2298 75.1849 35.2298 75.2231C35.2272 75.3059 35.2272 75.4052 35.1848 75.4995C35.1566 75.5631 35.1065 75.6205 35.0294 75.6625L35.0152 75.6714L34.996 75.6689C34.9741 75.6663 34.9574 75.6638 34.9382 75.6638C34.8495 75.6638 34.7686 75.6994 34.6799 75.7389C34.5913 75.7784 34.4987 75.8268 34.3934 75.8357H34.3818L34.3703 75.8306C34.3086 75.8051 34.2675 75.7669 34.2251 75.7287C34.1865 75.6905 34.1506 75.651 34.1082 75.6154L34.0889 75.6014V75.5759C34.0889 75.5708 34.0889 75.5568 34.094 75.5479C34.0966 75.5389 34.1056 75.5288 34.1133 75.5262L34.121 75.4574L34.1326 75.446C34.1685 75.4078 34.1775 75.3823 34.1775 75.3683C34.1775 75.3543 34.1724 75.3352 34.1493 75.3097C34.13 75.288 34.1043 75.2689 34.0773 75.246C34.0413 75.2346 34.0079 75.2269 33.9694 75.2269C33.8448 75.2269 33.7022 75.288 33.5377 75.288C33.485 75.288 33.4323 75.283 33.3758 75.2626L33.354 75.2575L33.3463 75.2358C33.3385 75.2142 33.3347 75.1912 33.3347 75.1721C33.3347 75.1301 33.3424 75.0945 33.3424 75.0652C33.3424 75.0512 33.3398 75.0346 33.3373 75.027C33.3321 75.0155 33.3257 75.0053 33.3064 74.9938L33.2872 74.9798L33.2846 74.9556C33.2846 74.9416 33.2769 74.9276 33.2602 74.9111C33.2486 74.897 33.2268 74.8754 33.2101 74.8448C33.1651 74.8168 33.124 74.8092 33.0854 74.8092C33.0276 74.8092 32.9685 74.8308 32.9133 74.8639C32.8555 74.897 32.7964 74.9416 32.7411 74.9824L32.736 74.9875L32.0576 75.1836L32.0357 75.1505C32.0075 75.1085 31.9998 75.0652 31.9998 75.0295C31.9998 74.9964 32.0049 74.9722 32.0023 74.9518C32.0023 74.9327 31.9998 74.9187 31.9908 74.9021C31.9831 74.8881 31.9599 74.8665 31.9188 74.841C31.852 74.8079 31.8109 74.7773 31.7736 74.7633C31.7402 74.7442 31.7235 74.7417 31.7158 74.7417C31.7081 74.7417 31.6914 74.7442 31.6606 74.7608C31.6362 74.7722 31.6028 74.7939 31.5604 74.8219C31.5796 74.9403 31.613 75.0919 31.6156 75.2078V75.2269L31.604 75.2409C31.5655 75.2817 31.5295 75.3263 31.5013 75.3683C31.473 75.4065 31.4601 75.446 31.4601 75.4816C31.4601 75.5148 31.4717 75.5504 31.518 75.6001L31.5257 75.609L31.5282 75.6205C31.5334 75.6421 31.5359 75.6587 31.5359 75.6791C31.5359 75.7096 31.5244 75.7402 31.5051 75.7618C31.4858 75.7835 31.4666 75.7924 31.4434 75.8C31.4023 75.8141 31.3599 75.8281 31.3291 75.8446C31.3072 75.8561 31.2931 75.8726 31.2764 75.8968L31.2687 75.9109L31.2546 75.9159C31.1967 75.944 31.1595 75.9771 31.1261 76.0127C31.0927 76.0484 31.0567 76.0904 30.9976 76.1172C30.9591 76.1363 30.9115 76.1452 30.8498 76.1452H30.828L30.8139 76.1312C30.7278 76.0459 30.6635 76.0242 30.6134 76.0242C30.5608 76.0242 30.5107 76.0497 30.449 76.093C30.3912 76.1337 30.3295 76.1923 30.2601 76.2496C30.2408 76.363 30.1766 76.4725 30.0931 76.5668C30.0019 76.6636 29.8811 76.7374 29.7565 76.7438C29.7488 76.7438 29.7372 76.7438 29.7282 76.7438H29.7256H29.7231C29.7038 76.7387 29.6897 76.7387 29.6781 76.7387C29.6537 76.7387 29.6421 76.7438 29.6331 76.7527C29.6216 76.7616 29.6087 76.7782 29.5971 76.7973C29.5727 76.8419 29.556 76.9106 29.5188 76.9743C29.4944 77.0151 29.4571 77.0571 29.4019 77.0813L29.3903 77.0864H29.3787C29.3595 77.0864 29.3453 77.0915 29.326 77.1081C29.3068 77.1221 29.2875 77.1437 29.2644 77.1717C29.2233 77.229 29.1809 77.3042 29.1308 77.3704C29.0973 77.415 29.0614 77.4558 29.0113 77.4838L28.9804 77.5029L28.5654 77.1552V77.1335C28.5629 77.0889 28.5654 77.0482 28.5629 77.0202C28.5603 76.9922 28.5552 76.9756 28.5346 76.9565L28.5205 76.9425V76.9208C28.5205 76.8597 28.5205 76.7833 28.5128 76.7005C28.505 76.6228 28.4883 76.54 28.4575 76.4853C28.4459 76.4598 28.4292 76.4445 28.4164 76.4279C28.3804 76.4585 28.3496 76.4853 28.3187 76.5056C28.2828 76.5336 28.2442 76.5553 28.1941 76.5553C28.1299 76.5553 28.0721 76.5247 27.9796 76.4776L27.9718 76.4751L27.9667 76.47C27.9307 76.4318 27.9089 76.3961 27.8922 76.363C27.8781 76.3299 27.8703 76.2942 27.8703 76.2636C27.8703 76.2 27.8845 76.1477 27.8896 76.0675L27.7444 75.93L27.72 75.7173L27.5671 75.6625C27.562 75.6765 27.553 75.6956 27.5453 75.7147C27.526 75.7529 27.5093 75.7924 27.4759 75.8281C27.4541 75.8497 27.4232 75.8701 27.3847 75.8701H27.3795L27.3744 75.8675C27.3025 75.8459 27.2408 75.8102 27.1855 75.7822C27.1329 75.7542 27.0879 75.7376 27.0378 75.7325L26.8656 75.8179C26.8515 75.8484 26.8348 75.8726 26.8245 75.8867C26.8194 75.8917 26.8168 75.8943 26.8129 75.9007C26.8155 75.9032 26.8155 75.9032 26.8181 75.9058C26.8425 75.9249 26.8875 75.9503 26.9517 75.9962C26.9851 76.0051 27.0429 76.0293 27.1097 76.0624C27.1817 76.0981 27.2626 76.1477 27.3217 76.2063C27.3577 76.2445 27.3885 76.2917 27.3911 76.3528C27.3911 76.3885 27.3795 76.4216 27.3551 76.4521C27.3577 76.5158 27.3693 76.582 27.386 76.6483C27.4001 76.7196 27.4194 76.7973 27.4194 76.8712C27.4194 76.9323 27.4078 76.9947 27.3693 77.0533C27.3333 77.1106 27.2716 77.1552 27.1855 77.1908C27.0943 77.229 27.0018 77.2316 26.9273 77.2456C26.8489 77.2571 26.7821 77.2762 26.7294 77.3335L26.7179 77.345L26.7063 77.3475C26.7012 77.3526 26.6947 77.373 26.6755 77.3895C26.6639 77.401 26.6472 77.4137 26.6228 77.4201L26.6176 77.4226H26.6125C26.574 77.4226 26.5341 77.4035 26.5123 77.3781C26.4879 77.35 26.4763 77.3207 26.4673 77.2838C26.448 77.2176 26.4455 77.1374 26.4455 77.0737C26.4455 77.024 26.448 76.9858 26.448 76.9667V76.9552L26.4532 76.9438C26.5251 76.8088 26.5508 76.6954 26.5508 76.5846C26.5508 76.4521 26.5123 76.3146 26.4647 76.1516C26.4365 76.1095 26.4313 76.0637 26.4313 76.0242C26.4313 75.9503 26.4532 75.8777 26.4532 75.823C26.4532 75.7899 26.448 75.7618 26.4288 75.7351L26.1731 75.5835C26.1448 75.5695 26.123 75.5479 26.1089 75.5224C26.0947 75.4969 26.087 75.4702 26.0844 75.4485C26.0793 75.3989 26.0819 75.3543 26.0767 75.3186C26.0742 75.297 26.069 75.283 26.0549 75.2664L25.83 75.1314L25.8275 75.1072C25.8159 75.0435 25.8133 75.0168 25.7966 74.9582L25.7941 74.9531V74.5226L25.8159 74.5086C25.8493 74.4831 25.8879 74.4564 25.9303 74.4309C25.9662 74.4029 25.9996 74.3761 26.0189 74.3481C26.0305 74.329 26.0382 74.315 26.0382 74.3035L26.0356 74.2819L26.0215 74.2411L26.3029 74.1087C26.3054 74.1036 26.308 74.0896 26.3106 74.0756C26.3131 74.0501 26.3157 74.0182 26.3157 73.9851C26.3157 73.9215 26.3106 73.8501 26.2939 73.7865C26.2823 73.7279 26.2656 73.6782 26.2528 73.654C26.1911 73.6132 26.1384 73.5801 26.0973 73.5305C26.0523 73.4782 26.0279 73.4095 26.0305 73.3203V73.2681H26.0587C26.0613 73.2592 26.0665 73.2464 26.0729 73.2324C26.087 73.1968 26.1011 73.1471 26.1114 73.1114C26.1166 73.086 26.123 73.0732 26.1256 73.0592C26.1564 72.9764 26.1667 72.9217 26.1641 72.8822C26.1641 72.8491 26.159 72.8376 26.1448 72.821C26.1333 72.8096 26.1114 72.793 26.0806 72.779C26.0163 72.7484 25.9161 72.7179 25.8133 72.6351L25.7941 72.6211V72.5956C25.7941 72.5867 25.7941 72.5816 25.7966 72.5714L25.8018 72.5459C25.8043 72.5268 25.8095 72.5103 25.8133 72.4963C25.8133 72.4581 25.8056 72.4249 25.7941 72.3995C25.7825 72.3715 25.7632 72.3549 25.7388 72.3358C25.6887 72.3001 25.6142 72.2747 25.5217 72.2454H25.5191H25.5166C25.4973 72.2403 25.4806 72.2365 25.4613 72.2365C25.433 72.2365 25.3996 72.2415 25.3662 72.2479C25.3328 72.2543 25.2968 72.2619 25.2583 72.2619C25.2172 72.2619 25.1671 72.2505 25.1298 72.2097L25.1272 72.2072L25.1247 72.2021C25.1028 72.1639 25.0836 72.1244 25.0604 72.0887C25.0386 72.0556 25.0193 72.0276 24.9988 72.0174C24.9872 72.0085 24.9769 72.0059 24.9654 72.0059C24.9512 72.0059 24.9268 72.011 24.8934 72.0365L24.8793 72.048L24.86 72.0454C24.824 72.0429 24.8022 72.0403 24.7739 72.0314C24.7457 72.0225 24.7238 72.0034 24.7097 71.9817C24.6981 71.9703 24.6878 71.9537 24.6737 71.9321L24.6596 71.9104L24.6673 71.8824C24.6891 71.8213 24.729 71.7665 24.7624 71.7168C24.7958 71.6671 24.8176 71.6175 24.8176 71.5933C24.8176 71.5844 24.815 71.5793 24.8125 71.5691C24.8099 71.564 24.8009 71.5576 24.7906 71.55C24.7624 71.564 24.7238 71.5945 24.693 71.6328C24.6544 71.6773 24.621 71.7321 24.6185 71.7601L24.6159 71.7792L24.4013 71.9588C24.3795 72.0658 24.3628 72.1435 24.3229 72.2097C24.2818 72.2785 24.2176 72.3282 24.1084 72.3893L24.0865 72.4007L24.0647 72.3918C23.9336 72.3473 23.836 72.3205 23.7641 72.2925C23.6921 72.2645 23.6394 72.2403 23.5996 72.1982C23.5752 72.1702 23.5585 72.1346 23.5495 72.0989C23.5379 72.0467 23.5379 71.9919 23.5379 71.9142C23.5379 71.8837 23.5379 71.8531 23.5379 71.8174C23.5379 71.7588 23.5379 71.6901 23.5354 71.6111V71.5996L23.5405 71.5882C23.5482 71.5665 23.5688 71.55 23.5855 71.5385C23.6047 71.5296 23.6189 71.5245 23.6356 71.5194C23.6664 71.5143 23.6972 71.5143 23.7139 71.5079C23.7255 71.5054 23.7332 71.5028 23.7332 71.5028L23.7473 71.4888H23.7692H23.7718L23.7795 71.4863C23.7872 71.4837 23.7987 71.4786 23.8129 71.4672C23.8411 71.4481 23.8707 71.4252 23.908 71.3984C23.9773 71.3398 24.0557 71.2685 24.1084 71.2112C24.1418 71.1781 24.1662 71.1539 24.1829 71.1399L24.305 70.9055L24.6197 70.7985L24.6917 70.4865C24.6917 70.4865 24.6917 70.4865 24.6891 70.4839C24.6814 70.475 24.6699 70.4559 24.6699 70.4394V70.4368V70.4343C24.6776 70.3821 24.6814 70.3375 24.6814 70.2878C24.6814 70.1082 24.6287 69.9516 24.5671 69.7886C24.5092 69.6281 24.4501 69.4663 24.4386 69.2753C24.4 69.1683 24.3217 69.0549 24.2523 68.9531L24.2381 68.9314L24.296 68.7709L24.3178 68.762C24.3731 68.7378 24.4013 68.7047 24.4206 68.6601C24.4424 68.6155 24.4566 68.5582 24.4848 68.4971L24.49 68.4856L24.4977 68.478C24.526 68.4563 24.5555 68.4398 24.5812 68.4143C24.6056 68.3927 24.6172 68.3761 24.6223 68.3532V68.3481C24.6197 68.3392 24.6197 68.3264 24.6172 68.315C24.612 68.2895 24.6095 68.2653 24.6095 68.2653L24.6043 68.2398L24.6185 68.2207C24.6634 68.166 24.6853 68.1137 24.6853 68.0692C24.6853 68.036 24.6776 68.008 24.6519 67.9838C24.63 67.9596 24.5992 67.9393 24.5542 67.9227C24.5157 67.9482 24.4656 67.9775 24.4155 68.0106C24.3512 68.0488 24.287 68.0934 24.2459 68.1316C24.215 68.1596 24.2009 68.1838 24.1932 68.1952L24.188 68.2144L24.1688 68.2233C24.1379 68.2373 24.1161 68.264 24.0943 68.2946C24.0698 68.3277 24.0441 68.3634 24.0082 68.3965C23.9838 68.4181 23.9529 68.4385 23.9169 68.4487L23.8925 68.4538L23.8707 68.4398C23.7255 68.3239 23.5007 68.2296 23.3259 68.1634L23.3067 68.1583L23.2989 68.1443C23.2655 68.0806 23.2655 68.0208 23.263 67.9647C23.2604 67.9227 23.2578 67.8819 23.2386 67.8412L23.0767 67.9074C23.0317 67.9596 22.9687 67.9851 22.9045 68.0118C22.8428 68.0373 22.7824 68.0564 22.7349 68.0781L22.6899 68.4207H22.6617C22.6617 68.4232 22.6591 68.4258 22.6591 68.4296C22.654 68.4513 22.6514 68.4793 22.6475 68.4933V68.4958V68.4984C22.6424 68.52 22.6257 68.534 22.6116 68.548C22.5974 68.5621 22.5807 68.5671 22.5615 68.5735C22.5281 68.5824 22.4921 68.585 22.4561 68.585C22.406 68.585 22.3533 68.5799 22.3058 68.5735C22.2698 68.571 22.239 68.5646 22.2197 68.5621L22.2146 68.571C22.2094 68.5824 22.1953 68.6041 22.176 68.6232C22.131 68.7798 22.0925 68.883 21.9871 69.0206L21.973 69.0422H21.9486C21.937 69.0422 21.9178 69.0397 21.9075 69.0282C21.8959 69.0193 21.8882 69.0065 21.8831 68.9976C21.8754 68.976 21.8754 68.962 21.8754 68.9429C21.8754 68.8881 21.8869 68.8193 21.8869 68.7531C21.8869 68.72 21.8844 68.6894 21.8754 68.6652C21.8677 68.6436 21.8561 68.6321 21.8394 68.6232C21.8278 68.6181 21.8111 68.6143 21.7893 68.6143C21.7443 68.6232 21.7148 68.6359 21.6981 68.6448C21.6839 68.6563 21.6788 68.6589 21.6736 68.6754C21.6711 68.6843 21.6685 68.7009 21.6685 68.72C21.6659 68.748 21.6659 68.7837 21.6634 68.8244V68.8333L21.6608 68.8423C21.6197 68.9276 21.5413 69.1237 21.5413 69.2536C21.5413 69.2842 21.5439 69.3109 21.5529 69.3275C21.558 69.3466 21.5721 69.3606 21.5837 69.3683L21.6081 69.3874L21.6056 69.4179C21.5914 69.6574 21.5143 69.8866 21.4437 70.1044L21.4321 70.1401L21.1649 70.1452C21.1507 70.1808 21.1315 70.2139 21.107 70.2356C21.0762 70.2662 21.0351 70.2764 20.9991 70.2764C20.9464 70.2764 20.9015 70.2572 20.8514 70.2407C20.8013 70.2241 20.7537 70.205 20.7036 70.1961L20.6959 70.1936L20.6908 70.191C20.6355 70.1604 20.5931 70.1528 20.552 70.1528C20.4826 70.1528 20.4017 70.1834 20.3015 70.1834C20.268 70.1834 20.2346 70.1808 20.1987 70.1719L20.1768 70.1668L20.1653 70.1477C20.1126 70.0649 20.0573 70.0318 19.9867 70.0127C19.9199 69.9911 19.8415 69.9872 19.7695 69.972C19.7194 69.9605 19.6719 69.9414 19.6333 69.9032L19.6256 69.8943L19.6231 69.8802C19.6205 69.8611 19.6179 69.8446 19.6179 69.8255C19.6179 69.7593 19.6462 69.707 19.6629 69.6599C19.6847 69.6102 19.7014 69.5695 19.7014 69.5275C19.7014 69.5058 19.6963 69.4829 19.6873 69.4587C19.668 69.4498 19.6539 69.4396 19.6423 69.4281C19.6231 69.4065 19.6141 69.3784 19.6141 69.3593C19.6141 69.3288 19.6218 69.3046 19.6359 69.2816C19.6475 69.2574 19.6603 69.232 19.6719 69.2129C19.6963 69.1683 19.7169 69.1186 19.7169 69.083C19.7169 69.0498 19.7092 69.0193 19.6552 68.9811L19.6359 68.9671V68.9416C19.6359 68.9339 19.6308 68.9136 19.6308 68.8805C19.6308 68.8664 19.6333 68.8448 19.6423 68.8257L19.6475 68.8142L19.6552 68.8091C19.6937 68.7811 19.7246 68.7595 19.7438 68.7455C19.7631 68.7314 19.7683 68.7238 19.7683 68.7174C19.7708 68.7123 19.7708 68.706 19.7708 68.6894C19.7708 68.6703 19.7683 68.6448 19.7631 68.6041C19.7348 68.5901 19.7104 68.5786 19.6886 68.5684C19.6578 68.557 19.6218 68.5404 19.5832 68.5137L19.5614 68.4996V68.4716V68.3978L19.5922 68.3837C19.6282 68.3646 19.659 68.3532 19.6783 68.3417C19.7002 68.3303 19.7066 68.3201 19.7117 68.3086C19.7143 68.3035 19.7169 68.2946 19.7169 68.278C19.7169 68.2564 19.7117 68.2258 19.6976 68.1876C19.6693 68.1494 19.6398 68.1239 19.6115 68.1048C19.5807 68.0908 19.5473 68.0794 19.5113 68.0794C19.4393 68.0794 19.3494 68.1099 19.2492 68.1456L19.2132 68.1596L19.1888 68.1265C19.1503 68.0692 19.1438 68.0029 19.1438 67.9367C19.1438 67.8399 19.1631 67.738 19.1631 67.6438C19.1631 67.5915 19.158 67.547 19.1413 67.5113C19.0333 67.4336 18.955 67.4069 18.919 67.4069C18.8907 67.4069 18.8804 67.4158 18.8612 67.4374C18.8419 67.4591 18.8252 67.4948 18.8085 67.5393C18.7751 67.6298 18.7417 67.7495 18.653 67.8425L18.6389 67.8565H18.6171C18.5592 67.8565 18.5001 67.8514 18.45 67.8284C18.3973 67.8068 18.3498 67.7622 18.3215 67.7011L18.3164 67.6871L18.319 67.668C18.3305 67.6107 18.3382 67.5661 18.3382 67.524C18.3382 67.4527 18.319 67.4031 18.2881 67.3534C18.2573 67.3012 18.2098 67.2489 18.1545 67.1738L18.1494 67.1687L18.1468 67.1598C18.1185 67.0859 18.1083 67.0248 18.1083 66.9726C18.1083 66.9446 18.1108 66.9204 18.1198 66.9013C18.1275 66.8821 18.1417 66.8592 18.1584 66.8427C18.1943 66.8121 18.2419 66.807 18.2869 66.807C18.3318 66.807 18.3819 66.8121 18.4372 66.8261L18.4564 66.8287L18.468 66.8427C18.5091 66.8974 18.5464 66.9496 18.5875 66.9891C18.6235 67.0222 18.6595 67.0414 18.7121 67.0439C18.7198 67.0388 18.7314 67.0324 18.743 67.0184C18.7674 66.9993 18.7982 66.9777 18.8175 66.9573C18.8291 66.9484 18.8393 66.9382 18.8419 66.9356C18.8535 66.9242 18.856 66.9076 18.856 66.8809C18.856 66.8388 18.8368 66.779 18.8252 66.7204C18.7892 66.6822 18.7584 66.6465 18.7391 66.607C18.7173 66.5688 18.7083 66.5332 18.7083 66.4911C18.7083 66.4198 18.7391 66.3612 18.7661 66.281L18.7712 66.2593L19.0295 66.1524C19.0153 66.0696 19.0051 66.0084 18.9935 65.9677C18.9819 65.9155 18.9652 65.8964 18.955 65.8824C18.9473 65.8773 18.9331 65.8709 18.9049 65.8632C18.8714 65.8582 18.8188 65.8582 18.7468 65.8582C18.716 65.8582 18.6826 65.8582 18.644 65.8582H18.6363L18.6286 65.8556C18.5451 65.8225 18.495 65.7894 18.45 65.7588C18.4115 65.7282 18.3832 65.7066 18.3588 65.6977C18.3447 65.6926 18.328 65.6862 18.3036 65.6862C18.2702 65.6862 18.22 65.6939 18.1507 65.7168L18.143 65.7359C18.1378 65.7499 18.1288 65.7715 18.1211 65.797C18.107 65.8467 18.0877 65.9015 18.0543 65.9511C18.0299 65.9842 17.9965 66.0148 17.9489 66.0263H17.9438H17.9387C17.8834 66.0263 17.8307 66.0454 17.7601 66.0479C17.7292 66.0479 17.6984 66.0428 17.665 66.0263L17.6432 66.0174L17.638 65.9957C17.6162 65.9269 17.5969 65.8582 17.5686 65.7996L17.5661 65.7945V65.7894C17.5417 65.69 17.5468 65.5907 17.5442 65.5003C17.5417 65.4098 17.5365 65.3296 17.4993 65.2608L17.277 64.9743C17.232 64.9411 17.1986 64.9029 17.1742 64.8584C17.1498 64.8138 17.1357 64.7616 17.1292 64.7119C17.1151 64.6151 17.1177 64.5183 17.0984 64.4355C17.0766 64.3616 17.0239 64.2585 16.9596 64.163C16.8954 64.0636 16.826 63.9668 16.7785 63.8866L16.7759 63.8815L16.6564 63.5262C16.623 63.4981 16.5986 63.465 16.587 63.4294C16.5729 63.3886 16.5678 63.3415 16.5678 63.2994C16.5678 63.2332 16.5755 63.167 16.5755 63.1097C16.5755 63.0485 16.5678 63.0027 16.5395 62.9632L16.5344 62.9556L16.5318 62.9467C16.5177 62.897 16.5125 62.8499 16.5125 62.8002C16.5125 62.7098 16.5266 62.6206 16.5266 62.5442C16.5266 62.492 16.5215 62.4474 16.5022 62.4066C16.3802 62.3659 16.2941 62.3289 16.1823 62.2576L16.1605 62.2462L16.1386 62.064C16.1052 62.0067 16.0808 61.9621 16.0603 61.929C16.0384 61.8959 16.0217 61.8794 16.0101 61.8743L15.996 61.8717C15.9883 61.8717 15.9677 61.8768 15.9382 61.8908C15.9099 61.9023 15.8765 61.9214 15.8328 61.943L15.5463 62.3188L15.5348 62.3239C15.4988 62.3379 15.4628 62.3481 15.4268 62.3481C15.3626 62.3481 15.3074 62.3239 15.2624 62.3073C15.2174 62.2856 15.1763 62.2716 15.148 62.2742C15.1339 62.2742 15.1172 62.2767 15.0979 62.2882C15.0787 62.2997 15.0594 62.3188 15.0311 62.3519L15.0234 62.3633L15.0118 62.3684C14.9592 62.3901 14.8975 62.4066 14.8333 62.4066C14.778 62.4066 14.7189 62.3952 14.6688 62.357L14.647 62.343V62.3149C14.647 62.2818 14.6585 62.2538 14.6752 62.2296C14.6894 62.2041 14.7086 62.185 14.7279 62.1659C14.7639 62.1277 14.8063 62.0946 14.8281 62.064C14.8422 62.0424 14.85 62.0284 14.85 62.0144C14.85 62.0054 14.8474 61.9927 14.8307 61.9723V61.9698C14.8281 61.9647 14.8191 61.9583 14.7973 61.9481C14.778 61.9392 14.7523 61.9341 14.7228 61.9265C14.6611 61.915 14.5891 61.9048 14.5223 61.8819C14.4812 61.8679 14.4362 61.8462 14.408 61.8042C14.3938 61.7787 14.3836 61.7494 14.3836 61.7189C14.3836 61.6667 14.4054 61.6144 14.4414 61.5508L14.4272 61.2387C14.4157 61.2336 14.399 61.2273 14.3823 61.2196C14.3437 61.2005 14.2911 61.1814 14.2435 61.1559C14.1574 61.1177 14.0714 61.0732 14.0315 61.0566C14.02 61.0591 14.0033 61.0591 13.993 61.0591C13.9352 61.0591 13.8761 61.0375 13.8144 61.0095C13.7527 60.9815 13.6949 60.9432 13.6332 60.9025C13.5253 60.8248 13.4212 60.7318 13.3583 60.6681C13.2671 60.6427 13.2002 60.635 13.1553 60.635C13.1244 60.635 13.1026 60.6401 13.0859 60.6465C13.0666 60.6554 13.0525 60.6656 13.0358 60.6847C13.0024 60.7229 12.9715 60.7981 12.9304 60.9025L12.9279 60.9114L12.9227 60.9165C12.9112 60.928 12.9009 60.9356 12.8893 60.942C12.8842 60.9445 12.8778 60.9471 12.87 60.9471L12.8649 60.9585L12.8456 60.9942L12.8071 60.9891C12.6992 60.9674 12.6067 60.9038 12.5257 60.835C12.4422 60.7662 12.3702 60.6885 12.3009 60.6414L12.2983 60.6388L12.2957 60.6363C12.1878 60.5293 12.0542 60.4516 11.9373 60.3306L11.9257 60.3192L11.9231 60.3052C11.8987 60.137 11.8872 60.0186 11.8563 59.9078C11.8281 59.8034 11.7844 59.7066 11.6983 59.5741C11.5171 59.4773 11.4092 59.3449 11.3257 59.1984C11.2396 59.0494 11.1754 58.8863 11.0841 58.7271C11.0533 58.6864 11.0315 58.6418 11.0173 58.6036C11.0032 58.5628 10.9865 58.5297 10.9724 58.5068L10.9647 58.4953L10.9621 58.4839C10.9569 58.4431 10.9544 58.3705 10.9479 58.2941C10.9428 58.2202 10.9261 58.1375 10.9068 58.0789C10.8927 58.0407 10.8734 58.0126 10.8542 58.005C10.8464 57.9999 10.8323 57.9961 10.8208 57.9961H10.813H10.8053H10.8028C10.7 57.9961 10.5908 57.9439 10.5021 57.8751C10.4135 57.8063 10.3377 57.7146 10.3132 57.6191L10.3107 57.6165L10.2888 57.5949C10.2696 57.5758 10.2477 57.5567 10.2246 57.5338C10.2105 57.5198 10.1963 57.5032 10.186 57.4841C10.1835 57.4815 10.1835 57.4764 10.1809 57.4726L9.67726 57.2625L9.67212 57.2383C9.5719 56.8498 9.50509 56.5518 9.49096 56.143C9.42672 56.0411 9.40231 55.9366 9.37661 55.8398C9.3522 55.738 9.3265 55.6412 9.27126 55.5469C9.22115 55.473 9.21601 55.3928 9.20958 55.3266C9.20444 55.2578 9.19802 55.1992 9.16461 55.1495C9.11194 55.0591 9.05926 54.9865 9.00016 54.8935V54.891C8.93335 54.7585 8.90508 54.621 8.87553 54.4822C8.83442 54.3637 8.82028 54.2593 8.81129 54.1625C8.80358 54.0631 8.79202 53.9663 8.75604 53.8594V53.8568V53.8543C8.73163 53.7664 8.72521 53.6861 8.72521 53.6085C8.72521 53.5397 8.73034 53.476 8.73034 53.4149C8.73034 53.3015 8.71621 53.2047 8.6327 53.0977L8.62499 53.0837L8.61985 52.3998C8.61985 52.3641 8.61728 52.331 8.61728 52.303C8.61728 52.2508 8.61985 52.2151 8.61985 52.1846C8.61985 52.1514 8.61728 52.1298 8.60829 52.0967C8.60058 52.0661 8.58387 52.0253 8.55561 51.9642L8.54405 51.9502C8.53891 51.9387 8.53634 51.926 8.53248 51.9171C8.52734 51.8916 8.52477 51.8674 8.52092 51.8343C8.51578 51.7732 8.50936 51.6993 8.49908 51.6382C8.49394 51.6 8.48494 51.5668 8.47724 51.5503L8.42456 51.5083L8.39629 51.4802L8.4798 51.3236L8.49394 51.3185C8.55818 51.2854 8.60829 51.2663 8.64169 51.2497C8.6751 51.2306 8.68666 51.2191 8.69951 51.1886C8.70465 51.1669 8.71107 51.1364 8.71107 51.0918C8.7085 51.0638 8.70593 51.037 8.70593 51.009C8.70593 50.9313 8.71364 50.8549 8.71364 50.7861C8.71364 50.7606 8.71364 50.7364 8.71107 50.7148L8.70593 50.6728L8.74448 50.6588L8.74962 50.6537C8.75219 50.6486 8.75476 50.6396 8.75733 50.6256C8.76247 50.5976 8.76504 50.5594 8.76504 50.5187C8.76504 50.4906 8.76504 50.4639 8.76504 50.4359C8.76504 50.4142 8.76503 50.3977 8.7676 50.3786C8.77017 50.3594 8.77017 50.3454 8.77917 50.3238C8.77917 50.3212 8.78174 50.3187 8.78174 50.3187C8.77917 50.269 8.77403 50.2244 8.76246 50.1748C8.75476 50.1226 8.74062 50.0703 8.74062 50.0067C8.74062 49.971 8.74319 49.9353 8.75219 49.8908L8.75733 49.8576L8.79073 49.8526C8.80229 49.85 8.81257 49.85 8.82414 49.85C8.85754 49.85 8.88838 49.8589 8.91022 49.8717C8.92435 49.8806 8.94106 49.8857 8.95133 49.8959C8.97318 49.8933 8.98988 49.8882 9.00401 49.8844C9.00915 49.8818 9.01558 49.8818 9.01815 49.8818L9.02071 49.8704C9.02585 49.8513 9.03485 49.8258 9.05412 49.7965V49.794L9.1826 49.6233L9.19674 49.6182C9.21087 49.6157 9.24684 49.5876 9.27511 49.5443C9.30595 49.5036 9.33935 49.445 9.36633 49.3839C9.42415 49.2629 9.47169 49.138 9.49738 49.0833L9.49995 49.0782L9.50509 49.0731C9.5552 49.0209 9.60531 48.9827 9.65285 48.9406C9.69782 48.8999 9.7415 48.8528 9.77234 48.7891L9.77491 48.784L9.78004 48.7789C9.80446 48.7547 9.81345 48.7292 9.82116 48.7012C9.8263 48.6732 9.82887 48.6439 9.82887 48.6069C9.82887 48.5929 9.82887 48.5738 9.82887 48.5547C9.82887 48.5216 9.82887 48.486 9.83658 48.4503C9.84172 48.4223 9.85842 48.3955 9.87255 48.3726L9.77491 48.0338L9.77747 48.0224C9.78004 48.0032 9.79161 47.9281 9.80574 47.8453C9.81987 47.7625 9.83658 47.6772 9.85842 47.6224C9.86356 47.611 9.86613 47.6008 9.87255 47.5919C9.86998 47.5702 9.86484 47.5511 9.84814 47.5256C9.82887 47.4951 9.80317 47.4645 9.76977 47.4352C9.70552 47.3741 9.62201 47.3193 9.56676 47.2722C9.54235 47.2582 9.52822 47.2416 9.50895 47.2174C9.48711 47.1894 9.4704 47.1601 9.44728 47.1232C9.40873 47.0519 9.36376 46.9602 9.32779 46.8672C9.25327 46.68 9.18003 46.4838 9.16076 46.4201L9.15819 46.4087V46.3972V46.3858C9.15819 46.3412 9.13635 46.2699 9.10294 46.2062C9.06954 46.1425 9.02842 46.0826 8.98602 46.0431L8.98345 46.0406L8.98089 46.0381C8.91664 45.9502 8.8357 45.9145 8.74705 45.8941C8.65583 45.875 8.55818 45.8827 8.46567 45.8687C8.404 45.8597 8.34618 45.8445 8.30121 45.7999L8.29351 45.791L8.29094 45.7795C8.28837 45.768 8.2858 45.7655 8.26267 45.7515C8.25111 45.7426 8.23183 45.7324 8.21256 45.7184L8.06481 45.7515H8.0571C8.03526 45.7515 8.01598 45.7426 8.00185 45.7273C7.98772 45.7107 7.98258 45.6993 7.97744 45.6853C7.96973 45.6572 7.96973 45.6279 7.96973 45.591C7.96973 45.4751 7.99414 45.307 7.99414 45.172C7.99414 45.1223 7.99157 45.0816 7.98643 45.0484C7.98129 45.0153 7.96716 44.9962 7.95817 44.9911C7.95303 44.9886 7.95046 44.986 7.93889 44.986C7.92733 44.986 7.90806 44.9886 7.88108 45.0051L7.87594 45.0077H7.8708C7.83996 45.0128 7.80399 45.0293 7.76544 45.0434C7.7269 45.0574 7.67936 45.0739 7.63182 45.0739C7.60356 45.0739 7.574 45.0688 7.54574 45.0548L7.53417 45.0497L7.52647 45.0408C7.49306 45.0051 7.48535 44.958 7.48535 44.9134C7.48535 44.8523 7.50462 44.795 7.52133 44.7428C7.5406 44.688 7.56244 44.6409 7.57657 44.6078L7.57914 44.6027L7.58171 44.5976C7.59328 44.5836 7.61255 44.5734 7.62283 44.567C7.63696 44.5645 7.65109 44.5619 7.66137 44.5619C7.70634 44.5619 7.75259 44.5734 7.79756 44.5861C7.81941 44.5912 7.83611 44.5976 7.85281 44.6052C7.87208 44.5747 7.88879 44.5441 7.90549 44.5224C7.92733 44.4919 7.9556 44.4677 7.989 44.4537C8.01084 44.4447 8.03397 44.4397 8.05838 44.4346C8.09179 44.432 8.12776 44.432 8.17787 44.432C8.18558 44.432 8.19971 44.432 8.21128 44.432H8.21385L8.67253 44.4982L8.80358 44.1786L8.82285 44.1696C8.84726 44.1582 8.88452 44.1416 8.92307 44.1289C8.96161 44.1149 9.00658 44.1047 9.0477 44.1047C9.0811 44.1047 9.11708 44.1098 9.14791 44.1378H9.15048L9.15305 44.1404C9.21986 44.2091 9.34834 44.2397 9.49224 44.2397C9.67854 44.2397 9.87898 44.19 9.9869 44.1518C10.001 44.1467 10.0152 44.1404 10.0229 44.1378C10.0203 44.1327 10.0177 44.1289 10.0152 44.1238L10.0126 44.1149V44.106C10.0126 43.9901 10.0177 43.8933 10.046 43.8003C10.0743 43.7073 10.1205 43.6156 10.204 43.5214L10.2182 43.5023H10.4327C10.4404 43.4883 10.4469 43.4692 10.452 43.4411C10.452 43.408 10.4443 43.3698 10.4327 43.3252C10.425 43.2845 10.4109 43.2399 10.4083 43.2017L10.407 43.1597L10.4353 43.1406C10.4404 43.138 10.4469 43.1329 10.4571 43.1189C10.4623 43.1138 10.4764 43.1049 10.4906 43.0934C10.5432 42.9661 10.619 42.8973 10.6936 42.8642C10.7719 42.8285 10.8439 42.8196 10.8914 42.7903C10.9248 42.7687 10.9531 42.7457 10.9775 42.691C10.9801 42.6833 10.9826 42.677 10.9852 42.6655C10.9929 42.654 11.0045 42.6464 11.0096 42.6413C11.0289 42.6324 11.043 42.6273 11.0623 42.6222C11.0957 42.6171 11.1317 42.6171 11.1651 42.6171C11.1728 42.6171 11.1844 42.6171 11.1895 42.6171C11.2306 42.5127 11.2807 42.3471 11.2807 42.2121C11.2807 42.1484 11.273 42.0911 11.2473 42.0491C11.2255 42.0083 11.1946 41.9803 11.142 41.9637L11.0867 41.9497L11.1086 41.895C11.1304 41.8376 11.1664 41.7982 11.2062 41.7714C11.2396 41.7459 11.2756 41.7332 11.309 41.7141C11.3835 41.6199 11.4567 41.5129 11.5505 41.4212C11.6418 41.3307 11.7535 41.2607 11.9039 41.2556C11.9565 41.211 12.0092 41.1397 12.0657 41.0684C12.121 40.9971 12.1801 40.9168 12.2495 40.8557C12.2854 40.7729 12.3137 40.6927 12.3497 40.6162C12.3882 40.5386 12.4448 40.4621 12.5386 40.401L12.5578 40.3895L12.5797 40.3921C12.5989 40.3946 12.6156 40.3972 12.6323 40.3972C12.6902 40.3972 12.7467 40.3781 12.7994 40.3526C12.8546 40.3246 12.9073 40.2889 12.9664 40.2558L12.969 40.2533H12.9715L12.9793 40.2443C12.9844 40.2367 12.9908 40.2227 12.9985 40.2087C13.0101 40.1781 13.0229 40.1374 13.0319 40.0953C13.0371 40.0711 13.0461 40.0457 13.0602 40.0266L13.0628 40.0215L13.0653 40.0189C13.2105 39.8533 13.294 39.7298 13.4688 39.577C13.4765 39.5464 13.4932 39.5082 13.5047 39.4636C13.5163 39.419 13.5292 39.3732 13.533 39.3477V39.3426L13.5356 39.3375C13.5574 39.2802 13.5767 39.2242 13.5973 39.1771C13.6165 39.1274 13.6255 39.0892 13.6255 39.0612C13.6255 39.0471 13.6229 39.0357 13.6204 39.028C13.6178 39.0191 13.6127 39.014 13.5985 39.0064C13.5767 38.9924 13.5266 38.9784 13.4431 38.9784C13.3596 39.0561 13.2786 39.1134 13.1848 39.1771L13.1733 39.186H13.1591C13.118 39.186 13.0808 39.1809 13.0512 39.1643C13.0204 39.1503 12.996 39.1236 12.987 39.093C12.9818 39.0739 12.9793 39.0548 12.9793 39.0344C12.9793 38.9796 12.9985 38.9211 13.0127 38.8688C13.0268 38.8115 13.0409 38.7555 13.0409 38.7122C13.0409 38.6625 13.0294 38.6345 12.996 38.6077L12.9934 38.6052L12.9908 38.6026C12.9574 38.5695 12.933 38.5644 12.9189 38.5644C12.9047 38.5644 12.888 38.5695 12.8636 38.5925C12.8418 38.6141 12.8186 38.6472 12.7942 38.6867C12.7441 38.7695 12.703 38.8765 12.6555 38.9707C12.6246 39.0344 12.5912 39.0917 12.5527 39.1337C12.5283 39.1592 12.5026 39.1783 12.4666 39.1885L12.4615 39.1911H12.4563C12.4011 39.1911 12.3587 39.186 12.3253 39.163C12.2919 39.1439 12.27 39.1083 12.2636 39.0777C12.261 39.0561 12.2585 39.0395 12.2585 39.0229C12.2585 38.9975 12.2585 38.9822 12.2559 38.9618C12.2533 38.9427 12.2443 38.9287 12.2341 38.9096L12.0221 38.9185L12.0079 38.8994C11.9527 38.8357 11.9385 38.7555 11.9385 38.6867C11.9385 38.5899 11.963 38.4931 11.963 38.4333C11.963 38.4116 11.9604 38.3976 11.9578 38.3925C11.9552 38.3874 11.9552 38.3874 11.9463 38.381C11.8936 38.367 11.8268 38.367 11.7574 38.3594C11.688 38.3543 11.6071 38.3314 11.5428 38.269L11.5377 38.2639L11.5351 38.2588C11.4966 38.176 11.4824 38.1047 11.4734 38.0435C11.4657 37.9824 11.4516 37.9365 11.4233 37.8869C11.4041 37.8589 11.3784 37.8296 11.3347 37.7964C11.1869 37.7964 11.0893 37.8041 11.0199 37.8079C10.9865 37.8079 10.9582 37.8054 10.9312 37.7964C10.903 37.7875 10.876 37.7659 10.8644 37.7379C10.8567 37.7188 10.8503 37.7022 10.8452 37.6831C10.84 37.6551 10.84 37.6258 10.8375 37.5927C10.8349 37.5519 10.8349 37.4959 10.8323 37.436C10.8272 37.4309 10.8208 37.4245 10.813 37.4144C10.8053 37.4029 10.7989 37.3889 10.7989 37.3736C10.7989 37.3545 10.8066 37.3379 10.8182 37.3239C10.8297 37.3125 10.8426 37.3023 10.8542 37.2959L10.8734 37.2819C10.8786 37.2768 10.885 37.2628 10.9017 37.2488L10.9068 37.2437L10.9145 37.2411C10.9505 37.2271 10.9865 37.2195 11.0225 37.2195C11.0918 37.2195 11.1587 37.2335 11.2113 37.2335C11.2357 37.2335 11.2563 37.231 11.2756 37.2246C11.2897 37.2195 11.3064 37.2055 11.3167 37.1864L11.3193 37.1838L11.3218 37.1813C11.3411 37.1622 11.3527 37.1202 11.3527 37.0628C11.3527 37.0081 11.3475 36.9444 11.3475 36.8807C11.3475 36.8361 11.3501 36.7928 11.3668 36.7508C11.3809 36.7088 11.4169 36.668 11.4644 36.6489C11.4979 36.6349 11.5338 36.6273 11.5788 36.6273C11.6006 36.6273 11.6199 36.6298 11.6456 36.6324H11.6533L11.6585 36.6349C11.8229 36.7126 11.9835 36.8056 12.1403 36.8056C12.1544 36.8056 12.1685 36.8056 12.1814 36.803C12.2726 36.7483 12.3677 36.7317 12.4396 36.7088C12.518 36.6094 12.6478 36.4604 12.712 36.342C12.7339 36.3038 12.7454 36.2681 12.748 36.2426C12.748 36.235 12.7506 36.2235 12.7531 36.2121C12.7583 36.2006 12.7673 36.1904 12.775 36.1866C12.7775 36.184 12.7775 36.184 12.7801 36.184C12.8251 36.049 12.897 35.8618 12.9882 35.6822C13.0833 35.4976 13.2002 35.3231 13.339 35.2326L13.3634 35.2186L13.3917 35.2301C13.4058 35.2377 13.4225 35.2416 13.4328 35.2416C13.4521 35.2416 13.4662 35.2365 13.488 35.2275C13.5073 35.2186 13.5266 35.2021 13.5523 35.1868C13.5934 35.1295 13.6307 35.0875 13.6692 35.0569C13.7052 35.0238 13.7437 35.0021 13.7861 34.9881C13.8606 34.9601 13.9364 34.9601 14.0534 34.9359C14.1613 34.7754 14.2538 34.6264 14.3155 34.4506C14.318 34.4455 14.318 34.4392 14.3206 34.4315L14.3347 34.4124L14.3424 34.4073C14.3733 34.3335 14.3836 34.2749 14.3836 34.2367C14.3836 34.1985 14.3759 34.1704 14.3502 34.1399C14.3257 34.1093 14.2833 34.0787 14.2191 34.0431L14.1883 34.0291L14.1908 33.996C14.1934 33.9386 14.1934 33.8915 14.1934 33.8444C14.1934 33.7973 14.196 33.7591 14.2127 33.717C14.2204 33.689 14.2409 33.6648 14.2654 33.6432C14.2962 33.6126 14.3373 33.5884 14.3938 33.5693L14.4272 33.5553L14.4517 33.5833C14.5018 33.6406 14.5185 33.6903 14.5352 33.7298C14.5467 33.768 14.5544 33.7845 14.5737 33.8036C14.5853 33.8151 14.6046 33.8291 14.6354 33.8418C14.6572 33.8304 14.6714 33.8138 14.6855 33.7922C14.6996 33.7642 14.7099 33.731 14.7163 33.6903C14.7279 33.6075 14.7215 33.5082 14.7305 33.4139V33.4088L14.733 33.4037C14.8333 33.1439 14.945 32.921 15.0118 32.6587L15.0144 32.6472L15.0221 32.6383C15.1172 32.5389 15.2084 32.3619 15.2136 32.2333L15.2161 32.1836H15.2662C15.3112 32.1836 15.3523 32.1951 15.3857 32.1976L15.4101 32.2002L15.4217 32.2218C15.4718 32.2995 15.5129 32.3262 15.5528 32.3428C15.5913 32.3594 15.6388 32.3619 15.6889 32.3759C15.7249 32.3848 15.7635 32.4039 15.7969 32.4396L15.8046 32.4472L15.8071 32.4549C15.8984 32.6892 16.0294 32.8968 16.086 33.1617C16.1219 33.2038 16.1643 33.2305 16.217 33.2496C16.2697 33.2687 16.3314 33.2776 16.3982 33.2827C16.5292 33.2916 16.6731 33.2827 16.799 33.3324C16.8735 33.363 16.9468 33.4203 16.9879 33.512C16.993 33.5145 16.9956 33.5145 17.002 33.5171C17.0162 33.526 17.0264 33.5362 17.0354 33.5476C17.0547 33.5693 17.0688 33.5973 17.0804 33.6215C17.1087 33.6763 17.1331 33.7425 17.1588 33.7896C17.1781 33.8202 17.1948 33.8444 17.2115 33.8584C17.223 33.8635 17.2359 33.866 17.25 33.866C17.2834 33.866 17.3335 33.852 17.3811 33.8304C17.4337 33.8113 17.489 33.7896 17.5532 33.7896C17.611 33.7896 17.6778 33.8113 17.7318 33.8673L17.7369 33.8724L17.7395 33.8775C17.7704 33.9323 17.8012 33.9552 17.8307 33.9718C17.8616 33.9858 17.895 33.9909 17.9335 33.9909C17.9695 33.9909 18.0119 33.9883 18.062 33.9883C18.0903 33.9883 18.1173 33.9909 18.1481 33.9972L18.1507 33.9947C18.1584 33.9807 18.1725 33.9565 18.1815 33.931C18.2059 33.8788 18.2316 33.8151 18.2534 33.7629C18.2676 33.7272 18.2817 33.6967 18.2946 33.675L18.2997 33.6661L18.3074 33.661C18.3485 33.6304 18.3961 33.6164 18.441 33.6164C18.4911 33.6164 18.5323 33.6355 18.5721 33.6546C18.6106 33.6801 18.6466 33.7094 18.6864 33.74C18.7558 33.8036 18.8252 33.875 18.8984 33.9221C18.9434 33.9527 18.9871 33.9667 19.0321 33.9667C19.0565 33.9667 19.077 33.9641 19.104 33.9527L19.1117 33.9501H19.1194C19.122 33.9501 19.1387 33.9476 19.1528 33.9412C19.1721 33.9361 19.1914 33.9221 19.2171 33.9132C19.2672 33.8877 19.3173 33.861 19.37 33.8418C19.4008 33.8304 19.4316 33.8176 19.4612 33.8138C19.4805 33.8113 19.5062 33.8049 19.5447 33.7998C19.5832 33.7947 19.6282 33.7884 19.6732 33.7782C19.7644 33.7642 19.8685 33.7425 19.9186 33.7209C19.9237 33.7183 19.9301 33.7158 19.9327 33.7158V33.7017L19.961 33.6877C20.0753 33.6304 20.1473 33.5387 20.2192 33.4394C20.2912 33.34 20.3644 33.2292 20.4813 33.1579C20.5559 33.1082 20.6535 33.084 20.7794 33.0802C21.1186 33.0306 21.3743 33.0522 21.6916 32.9643V32.9592L21.8561 32.9809C21.8869 32.9834 21.9113 33.0025 21.9255 33.0191C21.9396 33.0407 21.9499 33.0637 21.9563 33.0879C21.9704 33.1401 21.9756 33.2012 21.9756 33.2649C21.9756 33.3528 21.9679 33.4419 21.9473 33.4967C21.9447 33.5056 21.9422 33.5183 21.9357 33.5273C21.9383 33.5324 21.9383 33.5387 21.9409 33.5489C21.946 33.5744 21.955 33.6037 21.9653 33.6368C21.9846 33.703 22.0038 33.7743 22.018 33.8075C22.0205 33.8151 22.0231 33.8266 22.0231 33.8266C22.0475 33.8928 22.0925 33.945 22.1452 33.9972C22.1979 34.0494 22.2595 34.0991 22.3071 34.1628C22.3649 34.2405 22.4214 34.3004 22.4792 34.3424C22.5409 34.3806 22.6077 34.4035 22.6964 34.4035C22.7246 34.4035 22.7516 34.401 22.7824 34.3984C22.8326 34.3602 22.8878 34.3437 22.9469 34.3437C23.0356 34.3437 23.1165 34.3742 23.1923 34.401C23.2 34.3984 23.2116 34.3959 23.2206 34.3933C23.2424 34.3882 23.2617 34.3819 23.2874 34.3793C23.3259 34.3742 23.3619 34.3717 23.3953 34.3679C23.5097 34.2902 23.6073 34.1857 23.7075 34.0838C23.8103 33.9794 23.9195 33.8737 24.0519 33.7998C24.1071 33.7476 24.1739 33.7336 24.233 33.7336C24.3217 33.7336 24.4052 33.7616 24.4668 33.7616C24.4977 33.7616 24.5195 33.7565 24.5362 33.7425L24.5439 33.7374L24.5516 33.7349C24.6467 33.7158 24.7354 33.6967 24.824 33.6967C24.8793 33.6967 24.932 33.7056 24.9859 33.7298C25.0386 33.754 25.0861 33.796 25.1337 33.8533L25.1478 33.875L25.081 34.1182L25.0759 34.1233C25.0514 34.159 25.0424 34.1895 25.0424 34.2112C25.0424 34.2392 25.0502 34.252 25.0733 34.2723C25.0951 34.2863 25.135 34.3029 25.1902 34.3029H25.1953H25.2005C25.2455 34.3118 25.2724 34.3411 25.2891 34.3691C25.3033 34.3933 25.311 34.4188 25.3135 34.4213C25.4806 34.6557 25.5641 34.89 25.6951 35.1384C25.7954 35.1575 25.8737 35.2123 25.9264 35.2823C25.9842 35.3511 26.0241 35.4364 26.06 35.509C26.1911 35.6033 26.272 35.6657 26.38 35.793L26.3851 35.7981L26.3877 35.8032C26.4262 35.8911 26.4789 35.9497 26.5431 35.993C26.6074 36.0363 26.6819 36.0643 26.7654 36.0834C26.9273 36.1191 27.1162 36.114 27.2883 36.1216C27.2909 36.1191 27.2909 36.1165 27.2935 36.114C27.305 36.0949 27.3179 36.0643 27.3346 36.0312C27.368 35.965 27.4129 35.8796 27.4708 35.8134C27.5093 35.7688 27.5568 35.7306 27.6185 35.7166H27.6237H27.6288C27.7457 35.7115 27.8768 35.7077 27.9898 35.6861C28.1093 35.6644 28.2095 35.6224 28.2763 35.551C28.3072 35.5128 28.3149 35.4848 28.3123 35.4657C28.3123 35.4543 28.3098 35.4402 28.3008 35.4301C28.2931 35.4186 28.2789 35.402 28.2622 35.3918C28.2288 35.3613 28.1838 35.3345 28.1427 35.2976C28.1183 35.2734 28.0926 35.2403 28.0926 35.1957C28.0926 35.1511 28.117 35.1078 28.1569 35.0683L28.171 35.0543H28.1851C28.1903 35.0492 28.1993 35.0403 28.2095 35.0238C28.2314 34.9957 28.2545 34.9524 28.2789 34.9028C28.3316 34.8034 28.3817 34.6799 28.4177 34.5882C28.4421 34.5271 28.4588 34.4838 28.4704 34.4647L28.4755 34.4532L28.4871 34.4443C28.5205 34.4226 28.5757 34.3997 28.6374 34.3729C28.6991 34.3449 28.762 34.3182 28.8095 34.2953C28.8314 34.2838 28.8507 34.2711 28.8622 34.2647V34.2558L28.8815 34.2418C28.9175 34.2112 28.9457 34.1806 28.9727 34.1539C29.001 34.1259 29.0254 34.1017 29.0588 34.0851C29.0806 34.0736 29.1089 34.066 29.1372 34.066C29.1821 34.066 29.2323 34.08 29.2926 34.1106L29.3171 34.122L29.3196 34.1501C29.3312 34.2163 29.3338 34.2736 29.344 34.3182C29.3517 34.3679 29.3659 34.4061 29.3967 34.4506L29.4019 34.4596L29.4044 34.4685C29.4121 34.5092 29.416 34.5564 29.416 34.6009C29.416 34.6697 29.4108 34.7385 29.4108 34.8073C29.4108 34.8569 29.4134 34.9041 29.425 34.9423C29.4365 34.9805 29.4532 35.0136 29.4802 35.0441L29.6974 35.2314L29.786 35.4326V35.4415C29.7886 35.4632 29.7886 35.4823 29.7886 35.5052C29.7886 35.6262 29.7667 35.723 29.7667 35.8058C29.7667 35.8554 29.7719 35.8937 29.795 35.9293C29.8143 35.9675 29.8477 36.0032 29.9094 36.0478L29.9119 36.0503L29.9145 36.0529L29.9171 36.0554L29.9286 36.0605C29.9363 36.0656 29.953 36.072 29.9672 36.0796C29.998 36.0936 30.0391 36.1102 30.0867 36.1242C30.1753 36.1547 30.2781 36.1764 30.3449 36.1764C30.3642 36.1764 30.3757 36.1764 30.3835 36.1738C30.3912 36.1713 30.395 36.1688 30.3976 36.1688L30.4027 36.1496L30.422 36.142C30.4862 36.1089 30.5107 36.0872 30.5389 36.0643C30.5633 36.0388 30.5916 36.0057 30.6391 35.9624C30.7252 35.8185 30.8421 35.7357 30.9706 35.681C31.1017 35.6262 31.243 35.5956 31.3818 35.551L31.3933 35.5485L31.4049 35.551C31.5693 35.5867 31.7248 35.6861 31.8777 35.7688C32.0306 35.8542 32.1758 35.9255 32.3171 35.9229C32.4032 35.9229 32.4841 35.8987 32.5754 35.8351C32.6062 35.8109 32.6422 35.7994 32.6833 35.7905C32.7244 35.7816 32.7719 35.779 32.8195 35.779C32.8889 35.779 32.9647 35.7841 33.0315 35.8007C33.0893 35.8121 33.1394 35.8312 33.1818 35.8529C33.1934 35.8529 33.2062 35.8554 33.2178 35.8554C33.2794 35.8554 33.3463 35.8363 33.4131 35.8172C33.4824 35.7956 33.5583 35.7752 33.6328 35.7752C33.697 35.7752 33.7638 35.7892 33.8281 35.8363L33.8306 35.8389L33.8332 35.8414C33.9167 35.9102 33.9643 35.9879 34.0195 36.0567C34.058 36.0783 34.0915 36.0872 34.1223 36.0872C34.175 36.0872 34.2225 36.063 34.2867 36.0261C34.3484 35.993 34.4152 35.9484 34.5013 35.9191C34.5373 35.9 34.563 35.8784 34.5874 35.8414C34.6118 35.8083 34.6285 35.7676 34.6491 35.7204C34.685 35.63 34.7184 35.5243 34.7968 35.439C34.8495 35.3842 34.9214 35.3422 35.0165 35.3256C35.0384 35.3205 35.0576 35.3167 35.0808 35.3167C35.1669 35.3167 35.2696 35.3473 35.3673 35.3944C35.4675 35.439 35.5626 35.4988 35.632 35.5714C35.6731 35.6122 35.7065 35.6568 35.7232 35.7039C35.781 35.7892 35.8735 35.8389 35.9763 35.8809C36.0816 35.9191 36.1986 35.9497 36.3013 35.9994C36.3656 36.0299 36.4234 36.0681 36.4684 36.1229C36.6495 36.1968 36.7742 36.2299 36.8628 36.2299C36.954 36.2299 37.0183 36.2019 37.1044 36.1446C37.1879 36.086 37.2765 35.9981 37.4102 35.8886C37.4718 35.8198 37.4937 35.7281 37.5245 35.6287C37.5528 35.5294 37.5887 35.4186 37.6915 35.3396L37.7224 35.3142L37.7532 35.3358C37.8149 35.3766 37.8508 35.4211 37.8778 35.4517C37.9061 35.4823 37.9228 35.5014 37.969 35.5128C37.9999 35.5205 38.041 35.5269 38.1027 35.5269C38.1721 35.5269 38.2222 35.5625 38.2607 35.5931C38.2992 35.6236 38.3275 35.6453 38.3558 35.6504L38.3673 35.6529L38.3751 35.658C38.4162 35.6886 38.4586 35.6962 38.4997 35.6962C38.5781 35.6962 38.6718 35.6606 38.7862 35.658C38.8106 35.658 38.8389 35.6606 38.8607 35.6669L38.8748 35.6695L38.8826 35.6771C38.9828 35.7676 39.0162 35.8784 39.0162 35.9866C39.0162 36.1191 38.9751 36.249 38.9545 36.3674V36.3789L38.9494 36.3878C38.8491 36.5483 38.7078 36.6604 38.5845 36.7903C38.5434 36.8616 38.51 36.9176 38.4868 36.961C38.465 37.0106 38.456 37.0437 38.456 37.0692C38.456 37.0972 38.4611 37.1214 38.4843 37.1571C38.5061 37.1902 38.5421 37.231 38.5922 37.2844C38.6307 37.3201 38.65 37.3723 38.65 37.4169C38.65 37.4997 38.6089 37.5685 38.5716 37.6372C38.5357 37.706 38.5022 37.7812 38.5048 37.8436C38.5048 37.8983 38.5241 37.9506 38.5909 38.0142L38.605 38.0282V38.0499C38.605 38.1378 38.5858 38.26 38.5549 38.3696C38.5215 38.4829 38.4804 38.5874 38.4162 38.6536C38.4085 38.6651 38.3943 38.6893 38.3828 38.7198C38.3712 38.7453 38.3545 38.7695 38.3327 38.7937C38.3301 38.8052 38.3301 38.8179 38.3301 38.8294C38.3301 38.8816 38.3442 38.907 38.3751 38.9338C38.4059 38.9593 38.4534 38.9745 38.5138 38.9886C38.6384 39.014 38.8093 39.0102 38.9622 39.0217C39.0624 39.0306 39.1601 39.0497 39.2372 39.0955L39.2487 39.1032L39.2539 39.1172C39.268 39.1503 39.2731 39.1809 39.2731 39.214C39.2731 39.3019 39.2372 39.377 39.232 39.4432V39.4572L39.2243 39.4687C39.1883 39.5184 39.1794 39.5681 39.1794 39.6292C39.1794 39.7336 39.2179 39.861 39.2205 39.9934C39.2205 40.0317 39.2153 40.0711 39.2063 40.1119L39.2179 40.131C39.2295 40.145 39.2487 40.1641 39.2706 40.1858C39.3155 40.224 39.3734 40.2685 39.4209 40.2991C39.435 40.308 39.4492 40.3131 39.4569 40.3208L39.6457 40.1603L39.6483 40.1577C39.6843 40.1361 39.7203 40.1272 39.7562 40.1272C39.8063 40.1272 39.8475 40.1463 39.8873 40.1654C39.9258 40.1896 39.9618 40.2201 40.0016 40.2507C40.0736 40.3144 40.1494 40.3857 40.2265 40.4328C40.2817 40.4634 40.3344 40.4825 40.4051 40.4825C40.4796 40.4825 40.5695 40.4583 40.6839 40.3832L40.689 40.3806L40.6942 40.3781C40.7276 40.3666 40.7635 40.359 40.8021 40.359C40.8599 40.359 40.9241 40.3781 40.9691 40.4277L40.9832 40.4418L40.9781 40.6952L40.9665 40.7092C40.8419 40.8582 40.6993 41.0518 40.468 41.1397C40.432 41.1754 40.3935 41.2059 40.3627 41.2339C40.3267 41.2645 40.2984 41.2951 40.2843 41.3358L40.2817 41.3473L40.274 41.3562C40.2599 41.3702 40.2406 41.4008 40.2188 41.4339C40.1969 41.467 40.1738 41.5027 40.1327 41.5307C40.1083 41.5447 40.0749 41.5587 40.0415 41.5587C39.9798 41.5702 39.8963 41.5638 39.8192 41.5702C39.7408 41.5727 39.6663 41.5893 39.6303 41.6199C39.6059 41.639 39.5943 41.6619 39.5943 41.7077V41.7294L39.5802 41.7434C39.5275 41.7956 39.4582 41.8096 39.3888 41.8096C39.3053 41.8096 39.2192 41.7905 39.1305 41.774C39.0444 41.7549 38.9609 41.7409 38.8941 41.7409C38.8748 41.7409 38.8581 41.7409 38.8414 41.7434H38.8337H38.826C38.7875 41.7383 38.7541 41.7358 38.7232 41.7358C38.659 41.7358 38.6179 41.7472 38.587 41.7638C38.5588 41.7829 38.5421 41.802 38.5254 41.8351C38.4945 41.9039 38.4843 42.0223 38.4586 42.1611L38.456 42.1803L38.4419 42.1917C38.4277 42.2057 38.4226 42.2134 38.42 42.2299C38.42 42.2516 38.4277 42.2821 38.4509 42.3203C38.4727 42.3586 38.5035 42.4031 38.5369 42.4477C38.6063 42.5381 38.6898 42.6349 38.7515 42.7266C38.79 42.7878 38.8209 42.8476 38.8209 42.9113V42.9253L38.8132 42.9368C38.7939 42.9648 38.7682 42.9814 38.7438 42.9979C38.7194 43.0094 38.6911 43.0196 38.6693 43.0259C38.6192 43.0374 38.5716 43.0476 38.5408 43.0641C38.519 43.0756 38.5048 43.0922 38.4907 43.1164L38.4881 43.1253L38.483 43.1304C38.3352 43.2768 38.2209 43.4806 38.1104 43.6678L38.1027 43.6869L38.0808 43.692C38.0474 43.701 38.014 43.706 37.9832 43.706C37.8971 43.706 37.8329 43.6755 37.775 43.6487C37.7198 43.6207 37.6748 43.5991 37.6273 43.5991C37.6157 43.5991 37.599 43.6016 37.5862 43.6042L37.4358 43.8474L37.4024 43.8449L37.3382 43.8398L37.3266 43.8309C37.1378 43.6793 36.9206 43.5876 36.6919 43.5876C36.6251 43.5876 36.5583 43.5965 36.4915 43.6131C36.4465 43.6462 36.417 43.6768 36.4003 43.701C36.381 43.7252 36.3784 43.7417 36.3784 43.7532C36.3784 43.7646 36.381 43.7786 36.3926 43.7914C36.4041 43.8054 36.4234 43.8245 36.4478 43.8436C36.4928 43.8818 36.5557 43.9213 36.6059 43.9761C36.6393 44.0117 36.6637 44.0614 36.6701 44.1136V44.1225L36.6675 44.1302C36.6624 44.1582 36.6598 44.1824 36.6598 44.204C36.6598 44.2652 36.6791 44.3225 36.7009 44.3836C36.7253 44.4409 36.7587 44.5021 36.7844 44.5657C36.8063 44.5938 36.8127 44.6269 36.8127 44.6536C36.8127 44.7109 36.7909 44.7746 36.7716 44.8383C36.7472 44.902 36.7215 44.9657 36.7048 45.0179C36.6932 45.051 36.6855 45.0816 36.6855 45.0918V45.0943L36.981 45.3427C37.0119 45.3477 37.0388 45.3567 37.0594 45.3732C37.0902 45.3949 37.1146 45.4229 37.1339 45.4509C37.175 45.5146 37.2033 45.5885 37.2033 45.6636C37.2033 45.6916 37.2007 45.7184 37.1892 45.7464C37.1776 45.7744 37.1583 45.7986 37.1339 45.8152H37.1313H37.1288C37.0311 45.8725 36.9592 45.9336 36.8924 46.0024C36.8256 46.0712 36.7613 46.1489 36.6752 46.2291L36.3026 46.6838L36.2641 46.6532C36.2191 46.6201 36.1857 46.5819 36.1497 46.5348C36.0547 46.4685 35.9326 46.4494 35.799 46.4405C35.6654 46.4316 35.5176 46.4354 35.3878 46.3883C35.3018 46.3577 35.226 46.3055 35.1656 46.2227C35.0461 46.145 34.9677 46.0992 34.9035 46.0457C34.8392 45.9922 34.7955 45.9413 34.7531 45.8585C34.7249 45.8037 34.7005 45.7375 34.6696 45.6483L34.6645 45.6343L34.6671 45.6203C34.6696 45.6088 34.6696 45.5948 34.6696 45.5846C34.6696 45.5604 34.6645 45.5401 34.6504 45.5184C34.6362 45.4968 34.6195 45.4777 34.5951 45.4573C34.5501 45.4165 34.4872 45.3745 34.4422 45.3197L34.4345 45.3057V45.2866C34.4345 45.2369 34.4345 45.1898 34.4345 45.1401C34.4345 45.0497 34.4319 44.9631 34.4127 44.8867C34.3934 44.8154 34.3677 44.7491 34.315 44.6906C34.3009 44.688 34.2765 44.6855 34.2431 44.6855C34.0979 44.6855 33.8512 44.7402 33.7201 44.8039C33.679 44.823 33.6508 44.8421 33.6418 44.8536L33.4863 45.1593C33.4889 45.1873 33.5056 45.228 33.5248 45.2752C33.5493 45.3274 33.5775 45.3796 33.5968 45.4216V45.4242V45.4267C33.6186 45.4955 33.6302 45.5706 33.6302 45.642C33.6302 45.8126 33.5724 45.9846 33.4657 46.1081C33.4208 46.1769 33.3938 46.2355 33.3745 46.3017C33.3553 46.3654 33.3463 46.4367 33.3296 46.5246V46.5297L33.2268 46.7564L33.2191 46.7615C33.1831 46.792 33.1304 46.8392 33.0662 46.8825C33.0045 46.9232 32.9325 46.9652 32.8516 46.9652C32.7938 46.9652 32.7321 46.9372 32.6871 46.8825L32.6756 46.8685V46.857L32.673 46.8544C32.6679 46.8493 32.6589 46.8353 32.6447 46.8239C32.6203 46.7984 32.5869 46.7666 32.5497 46.736C32.4777 46.6749 32.3942 46.6125 32.3685 46.5984L32.3441 46.5844V46.3221L32.3634 46.3081C32.3659 46.3081 32.3826 46.2864 32.3942 46.2584C32.4083 46.2304 32.425 46.1947 32.4392 46.1565C32.47 46.0826 32.5008 45.996 32.5253 45.9413C32.5304 45.9272 32.5368 45.9132 32.5471 45.903C32.5471 45.9005 32.5497 45.9005 32.5522 45.898L32.6165 45.512C32.6113 45.4929 32.6049 45.4815 32.6023 45.4738C32.5972 45.4649 32.5972 45.4624 32.5946 45.4598C32.5895 45.4547 32.5638 45.4382 32.5304 45.4051L32.5278 45.4025L32.5253 45.4C32.5137 45.3809 32.5111 45.3694 32.506 45.3503C32.5008 45.3312 32.5008 45.3146 32.4983 45.2892C32.4931 45.2446 32.4906 45.1873 32.4906 45.1236C32.4906 45.0293 32.4957 44.9224 32.515 44.8205C32.5343 44.7211 32.5561 44.6307 32.6062 44.5645C32.637 44.5224 32.6846 44.4868 32.745 44.4868H32.7565L32.7681 44.4919C32.8349 44.525 32.8991 44.5415 32.9595 44.5415C33.151 44.5415 33.3039 44.3874 33.3129 44.1773C33.3051 44.1722 33.2936 44.1658 33.2846 44.1633C33.2653 44.1582 33.2486 44.1544 33.2229 44.1544C33.1844 44.1544 33.1343 44.1595 33.0842 44.1595C33.0456 44.1595 33.0058 44.1569 32.9647 44.1378L32.9428 44.1289L32.8285 43.8232L32.6036 43.6997L32.5985 43.6882C32.4931 43.5252 32.3004 43.4067 32.0871 43.4042C31.8006 43.5418 31.5025 43.5201 31.2327 43.5418C31.1633 43.5532 31.0824 43.594 31.004 43.6322C30.9257 43.6704 30.8421 43.7099 30.7535 43.7099C30.7149 43.7099 30.6751 43.701 30.6366 43.6793C30.6006 43.6577 30.5672 43.6271 30.5364 43.5851L30.5338 43.5825L30.5312 43.58C30.5029 43.5252 30.4644 43.4895 30.4092 43.4615C30.3565 43.4335 30.2897 43.4118 30.2203 43.3978C30.0918 43.3673 29.953 43.3533 29.8387 43.2934C29.8053 43.3125 29.7667 43.315 29.7333 43.315C29.6691 43.315 29.6023 43.301 29.5612 43.301C29.5252 43.3749 29.4918 43.4832 29.4584 43.5965C29.4224 43.7239 29.3839 43.8563 29.3248 43.9633C29.2888 44.0295 29.2412 44.0843 29.1796 44.1174C29.1462 44.1505 29.1076 44.1913 29.0768 44.2384C29.046 44.283 29.0241 44.3352 29.0241 44.3734L29.0267 44.3976C29.0652 44.497 29.1153 44.618 29.1153 44.7428C29.1153 44.7975 29.1076 44.8472 29.0819 44.8994L29.0794 44.9045L29.0768 44.9096C29.0485 44.9427 28.9817 45.023 28.8982 45.1058C28.8147 45.1911 28.717 45.2853 28.6194 45.349C28.5552 45.3898 28.4909 45.4203 28.4241 45.4203C28.4164 45.4203 28.4048 45.4178 28.3958 45.4178C28.3958 45.4203 28.3958 45.4254 28.3958 45.4293C28.3958 45.5006 28.3599 45.5643 28.329 45.6305C28.3008 45.6878 28.2763 45.7438 28.2738 45.777C28.3406 45.8738 28.374 45.9667 28.4023 46.0559C28.4305 46.1463 28.4549 46.2265 28.4999 46.3119C28.5911 46.3424 28.6528 46.3756 28.6978 46.4138C28.7479 46.4545 28.7646 46.5157 28.7646 46.5742C28.7646 46.6481 28.7427 46.7309 28.7286 46.8392L28.726 46.8608L28.7068 46.8723C28.6155 46.9385 28.5179 47.0073 28.4318 47.0875C28.3457 47.1652 28.2763 47.2531 28.2455 47.3499C28.2262 47.4072 28.1928 47.4518 28.1736 47.4963C28.1517 47.532 28.1402 47.5626 28.1376 47.5982C28.1453 47.6072 28.1569 47.6173 28.171 47.6263C28.1928 47.6377 28.2211 47.6517 28.2455 47.6594C28.3033 47.681 28.374 47.6976 28.4318 47.7473L28.4344 47.7498L28.437 47.7549C28.4819 47.8186 28.5449 47.8784 28.6065 47.9447C28.6618 48.0058 28.7119 48.072 28.7427 48.151C28.9933 48.314 29.3273 48.4044 29.6138 48.5535C29.6717 48.556 29.7218 48.5726 29.7616 48.6031C29.8027 48.6337 29.831 48.6719 29.8567 48.7101C29.9016 48.7878 29.9312 48.8706 29.9877 48.9164C30.0237 48.947 30.0661 48.9687 30.1458 48.9687C30.1573 48.9687 30.174 48.9687 30.1907 48.9661L30.2049 48.947C30.219 48.933 30.2434 48.9088 30.2794 48.8973L30.2845 48.8948H30.2897C30.3616 48.8948 30.4233 48.9088 30.4708 48.9394C30.5158 48.9699 30.5453 49.0107 30.5685 49.0578C30.6044 49.1482 30.6096 49.2476 30.6327 49.3393C30.6468 49.4004 30.6661 49.4526 30.7021 49.4908L30.7047 49.4934V49.4959C30.7548 49.5647 30.8357 49.6144 30.9295 49.6564C31.0233 49.6984 31.1299 49.7303 31.2276 49.7723L31.2353 49.7749L31.2404 49.78C31.3908 49.9175 31.4576 50.05 31.4884 50.1913C31.5192 50.3352 31.5128 50.4804 31.5218 50.6829V50.6906C31.5244 50.6931 31.5295 50.6957 31.5359 50.6995C31.5668 50.697 31.5938 50.697 31.6195 50.697C31.7197 50.697 31.8032 50.7186 31.8751 50.7543C31.9471 50.7899 32.0203 50.8396 32.109 50.8918L32.1205 50.9007L32.1257 50.9147C32.1784 51.0357 32.2542 51.1465 32.3454 51.2268C32.4366 51.3045 32.5368 51.3541 32.6512 51.3541C32.7231 51.3541 32.8041 51.3325 32.8876 51.2854C32.9068 51.2663 32.9235 51.2523 32.9428 51.2472C32.9544 51.2421 32.9672 51.2421 32.9762 51.2382C33.2602 50.9568 33.5159 50.6282 33.8216 50.3493C33.8461 50.3238 33.8769 50.3161 33.9052 50.3187C33.9386 50.3187 33.9668 50.3276 33.9964 50.3378C34.0272 50.3467 34.058 50.3633 34.0876 50.3735C34.1493 50.3977 34.2122 50.4231 34.2546 50.4231C34.2662 50.4231 34.2765 50.4206 34.2855 50.418C34.3304 50.3493 34.36 50.2907 34.3934 50.2385C34.4294 50.1837 34.4795 50.1417 34.5514 50.12C34.6015 50.106 34.6542 50.0984 34.73 50.0984C35.0088 50.0984 35.2247 50.2283 35.4251 50.3684C35.6255 50.5085 35.817 50.6524 36.0367 50.711L36.0444 50.7135L36.0521 50.7186C36.0881 50.7466 36.1189 50.7543 36.1523 50.7543C36.1909 50.7543 36.2358 50.7403 36.2808 50.7186C36.3193 50.6995 36.3643 50.6779 36.4028 50.6524C36.4106 50.6218 36.417 50.5862 36.4311 50.5505C36.4427 50.5123 36.4594 50.4677 36.4838 50.432C36.4889 50.3747 36.5121 50.3251 36.539 50.283C36.5699 50.2385 36.6084 50.1977 36.6534 50.1671C36.7395 50.1035 36.8397 50.0512 36.9155 49.999L36.9399 49.9799L36.9682 49.9914L37.0067 50.0105C37.1712 49.8666 37.3626 49.8169 37.5271 49.7265L37.5296 49.7239H37.5348C37.6209 49.6959 37.6825 49.6742 37.7301 49.6246L37.7352 49.6157L37.7429 49.6131C37.8264 49.5774 37.9241 49.5087 38.0217 49.4284C38.1194 49.3482 38.2196 49.2654 38.3134 49.2055C38.3776 49.1673 38.4419 49.1342 38.5048 49.1228L38.5189 49.1202L38.5305 49.1253C38.5716 49.1444 38.6783 49.1864 38.7862 49.2272C38.8941 49.268 39.011 49.31 39.0727 49.324C39.0868 49.3265 39.101 49.3291 39.1035 49.3291C39.1896 49.3202 39.2616 49.3214 39.3207 49.3176C39.3785 49.3125 39.4235 49.3036 39.4659 49.2769C39.4903 49.2578 39.5185 49.2348 39.5494 49.1941C39.5545 49.0069 39.638 48.877 39.7331 48.7725C39.8308 48.6592 39.9361 48.5624 39.9978 48.4363C40.0312 48.365 40.098 48.2873 40.1699 48.2159C40.2419 48.1472 40.3254 48.0835 40.3986 48.0389L40.4012 48.0364L40.4064 48.0338C40.4757 48.0083 40.5258 47.9765 40.5618 47.9345C40.5978 47.8924 40.6235 47.8402 40.6363 47.7829C40.6697 47.667 40.6672 47.5269 40.6723 47.3945V47.3664L40.9344 47.2034C40.9794 47.1678 41.0179 47.1015 41.0513 47.0238C41.0847 46.95 41.1181 46.8672 41.1657 46.8035C41.1965 46.7627 41.2351 46.7296 41.2903 46.7131H41.2929H41.2955C41.307 46.7105 41.3237 46.708 41.334 46.708C41.3725 46.708 41.4034 46.722 41.4316 46.7436C41.4561 46.7653 41.4766 46.7882 41.4959 46.8124C41.5293 46.8621 41.5576 46.9118 41.5743 46.936C41.6077 46.9665 41.6385 46.9716 41.677 46.9716C41.722 46.9716 41.7773 46.9602 41.8415 46.9602C41.8749 46.9602 41.9135 46.9652 41.9494 46.9818L41.961 46.9869L41.9687 46.9984C42.0137 47.0595 42.0689 47.0811 42.1409 47.0811C42.2154 47.0811 42.3079 47.0531 42.403 47.0175C42.498 46.9818 42.5918 46.9398 42.6779 46.9105C42.7357 46.8888 42.7858 46.8748 42.8398 46.8748C42.8706 46.8748 42.904 46.8799 42.9349 46.899C42.9632 46.9181 42.985 46.9487 42.9966 46.9818V46.9844V46.9869C42.9991 47.0009 42.9991 47.0149 42.9991 47.0277C43.0569 47.1028 43.0235 47.1499 42.9927 47.1907Z" fill="white"/>
<path d="M105.188 79.8011C107.698 79.8011 108.972 78.283 108.972 75.4988V73.633C108.972 70.8488 107.695 69.3307 105.188 69.3307H103.727V64.8794H108.242V62.3945H101.221V79.8011H105.188ZM103.73 77.315V71.8206H105.191C105.989 71.8206 106.468 72.218 106.468 73.4623V75.6759C106.468 76.9202 105.99 77.3176 105.191 77.3176H103.73V77.315Z" fill="#009640"/>
<path d="M116.223 62.3945H112.551L109.997 79.8011H112.301L112.735 76.6438H115.812L116.246 79.8011H118.778L116.223 62.3945ZM114.265 65.4767L115.473 74.2787H113.055L114.265 65.4767Z" fill="#009640"/>
<path d="M131.804 79.8011V62.3945H129.295V77.315H127.13V62.3945H124.62V77.315H122.456V62.3945H119.946V79.8011H131.804Z" fill="#009640"/>
<path d="M139.343 79.8011H141.919L138.431 70.1509L141.919 62.3945H139.41L136.127 69.9777V62.3945H133.618V79.8011H136.127V74.4532L136.903 72.8637L139.343 79.8011Z" fill="#009640"/>
<path d="M145.363 66.3992C145.363 65.1549 145.864 64.6824 146.662 64.6824C147.46 64.6824 147.961 65.1536 147.961 66.3992V75.7973C147.961 77.0416 147.46 77.5141 146.662 77.5141C145.864 77.5141 145.363 77.0429 145.363 75.7973V66.3992ZM142.853 75.6241C142.853 78.4082 144.199 80.0002 146.661 80.0002C149.122 80.0002 150.469 78.4082 150.469 75.6241V66.5725C150.469 63.7883 149.122 62.1963 146.661 62.1963C144.199 62.1963 142.853 63.7883 142.853 66.5725V75.6241Z" fill="#009640"/>
<path d="M155.792 62.3945H152.099V79.8011H154.608V73.2611H155.792C158.302 73.2611 159.531 71.7429 159.531 68.9588V66.6956C159.531 63.9127 158.302 62.3945 155.792 62.3945ZM155.792 64.8806C156.59 64.8806 157.025 65.278 157.025 66.5223V69.1333C157.025 70.3776 156.59 70.775 155.792 70.775H154.608V64.8806H155.792Z" fill="#009640"/>
<path d="M159.966 64.8806H162.587V79.8011H165.096V64.8806H167.717V62.3945H159.966V64.8806Z" fill="#009640"/>
<path d="M171.124 66.3992C171.124 65.1549 171.626 64.6824 172.423 64.6824C173.221 64.6824 173.722 65.1536 173.722 66.3992V75.7973C173.722 77.0416 173.221 77.5141 172.423 77.5141C171.626 77.5141 171.124 77.0429 171.124 75.7973V66.3992ZM168.615 75.6241C168.615 78.4082 169.962 80.0002 172.423 80.0002C174.885 80.0002 176.232 78.4082 176.232 75.6241V66.5725C176.232 63.7883 174.885 62.1963 172.423 62.1963C169.962 62.1963 168.615 63.7883 168.615 66.5725V75.6241Z" fill="#009640"/>
<path d="M182.764 73.3112V75.7973C182.764 77.0416 182.263 77.4887 181.465 77.4887C180.668 77.4887 180.166 77.0416 180.166 75.7973V66.3992C180.166 65.1549 180.668 64.6824 181.465 64.6824C182.263 64.6824 182.764 65.1536 182.764 66.3992V68.2651H185.135V66.5725C185.135 63.7883 183.858 62.1963 181.396 62.1963C178.934 62.1963 177.657 63.7883 177.657 66.5725V75.6228C177.657 78.4069 178.934 79.999 181.396 79.999C183.858 79.999 185.135 78.4069 185.135 75.6228V73.3099H182.764V73.3112Z" fill="#009640"/>
<path d="M185.927 64.8806H188.548V79.8011H191.057V64.8806H193.678V62.3945H185.927V64.8806Z" fill="#009640"/>
<path d="M200.346 62.3945H196.674L194.12 79.8011H196.424L196.858 76.6438H199.935L200.37 79.8011H202.901L200.346 62.3945ZM198.386 65.4767L199.593 74.2787H197.175L198.386 65.4767Z" fill="#009640"/>
<path d="M206.579 72.339H209.427V79.8011H211.982V62.3945H209.427V69.8529H206.579V62.3945H204.068V79.8011H206.579V72.339Z" fill="#009640"/>
</g>
<defs>
<clipPath id="clip0_4047_35399">
<rect width="211.982" height="80" fill="white"/>
</clipPath>
</defs>
</svg>
